<svg width="21" height="20" viewBox="0 0 21 20" fill="none" xmlns="http://www.w3.org/2000/svg">
<path d="M9.636 10.1166L9.04023 12.5319C9.77565 12.7166 12.044 13.4532 12.3792 12.0907C12.7296 10.6697 10.3714 10.3022 9.636 10.1166ZM10.4486 6.82043L9.90852 9.01099C10.5209 9.16541 12.4088 9.79504 12.7147 8.55573C13.0334 7.26294 11.0611 6.97479 10.4487 6.82043H10.4486ZM10.5 0C8.52218 0 6.58879 0.58649 4.94429 1.6853C3.2998 2.78412 2.01808 4.3459 1.2612 6.17317C0.504325 8.00043 0.306292 10.0111 0.692144 11.9509C1.078 13.8907 2.0304 15.6725 3.42893 17.0711C4.82745 18.4696 6.60928 19.422 8.54909 19.8079C10.4889 20.1937 12.4996 19.9957 14.3268 19.2388C16.1541 18.4819 17.7159 17.2002 18.8147 15.5557C19.9135 13.9112 20.5 11.9778 20.5 10C20.5 8.68678 20.2413 7.38642 19.7388 6.17317C19.2362 4.95991 18.4996 3.85752 17.5711 2.92893C16.6425 2.00035 15.5401 1.26375 14.3268 0.761205C13.1136 0.258658 11.8132 0 10.5 0ZM14.858 8.57538C14.837 8.95905 14.6898 9.32502 14.4392 9.61637C14.1887 9.90772 13.8489 10.1081 13.4727 10.1864C13.72 10.287 13.9437 10.4378 14.1298 10.6292C14.3159 10.8206 14.4603 11.0485 14.554 11.2985C14.6476 11.5485 14.6885 11.8152 14.6739 12.0817C14.6594 12.3483 14.5898 12.6089 14.4696 12.8473C13.8841 14.5394 12.4929 14.6823 10.643 14.3282L10.194 16.1479L9.1092 15.8744L9.55232 14.0791C9.27113 14.0085 8.98377 13.9335 8.68775 13.8523L8.2431 15.6559L7.15948 15.3825L7.60848 13.5594C7.35506 13.4938 7.09768 13.4241 6.83504 13.3575L5.4233 13.0016L5.96187 11.7457C5.96187 11.7457 6.76119 11.9607 6.75039 11.9448C6.80013 11.9606 6.85254 11.9665 6.90456 11.9619C6.95658 11.9574 7.00719 11.9426 7.05344 11.9183C7.09969 11.8941 7.14067 11.8609 7.17399 11.8207C7.20732 11.7805 7.23233 11.7341 7.24758 11.6841L8.465 6.74634C8.48062 6.59506 8.43651 6.44366 8.34207 6.32444C8.24763 6.20522 8.11034 6.12763 7.9595 6.10822C7.9765 6.09668 7.1715 5.9101 7.1715 5.9101L7.46013 4.73822L8.95623 5.11603L8.955 5.1217C9.17991 5.17822 9.41166 5.23199 9.64775 5.28638L10.0924 3.4845L11.1766 3.75793L10.741 5.52448C11.0321 5.59167 11.325 5.65948 11.6102 5.73138L12.0427 3.97638L13.1276 4.24982L12.6833 6.05231C14.053 6.52948 15.0547 7.24481 14.858 8.57538Z" fill="white"/>
</svg>
