<svg width="144" height="144" viewBox="0 0 144 144" fill="none" xmlns="http://www.w3.org/2000/svg">
<path d="M14.053 107.116C13.2638 107.08 12.5028 106.911 11.7698 106.609C11.0369 106.309 10.4638 105.952 10.0505 105.538C9.14832 104.711 8.6976 103.64 8.6976 102.324C8.6976 101.724 8.92296 101.197 9.3744 100.746C9.82512 100.295 10.3514 100.069 10.9526 100.069C11.5913 100.069 12.1363 100.294 12.5878 100.746C13.001 101.235 13.2077 101.76 13.2077 102.324C13.2077 102.926 13.001 103.471 12.5878 103.959C12.5122 104.035 12.4373 104.092 12.3624 104.128C12.2868 104.167 12.2119 104.223 12.137 104.298C12.325 104.561 12.6166 104.758 13.0111 104.89C13.4057 105.022 13.8096 105.087 14.2236 105.087C15.0502 105.087 15.7262 104.918 16.2533 104.579C16.7789 104.241 17.1742 103.846 17.437 103.396C17.8877 102.644 18.0094 101.827 17.8034 100.943C17.5968 100.06 17.1173 99.393 16.3656 98.9416C15.5383 98.4534 14.3928 98.3778 12.9269 98.7162C12.9269 98.1157 13.0961 97.5887 13.4345 97.138C13.7729 96.6873 14.4115 96.4612 15.3511 96.4612C16.2907 96.4612 17.023 96.6585 17.6623 97.053C18.301 97.4476 18.8266 97.9645 19.2413 98.6032C19.692 99.3556 19.9462 100.229 20.0023 101.225C20.0585 102.221 19.8893 103.161 19.4947 104.044C19.1002 104.927 18.4522 105.669 17.55 106.27C16.6478 106.872 15.4829 107.154 14.0544 107.116L14.053 107.116Z" fill="#D2AC69"/>
<path d="M15.4627 109.825C16.5571 109.825 17.4478 110.2 18.1858 110.969L18.1908 110.974L18.1958 110.979C18.9346 111.719 19.2938 112.613 19.2938 113.712V138.912C19.2938 139.863 19.0685 140.636 18.6062 141.276C18.1282 141.934 17.519 142.453 16.7947 142.815C16.0538 143.185 15.2417 143.399 14.3806 143.449C14.2697 143.456 14.1581 143.459 14.0494 143.459C13.3322 143.459 12.6504 143.315 12.0233 143.03C11.3026 142.703 10.7208 142.207 10.2434 141.515C9.78121 140.845 9.54649 139.951 9.54649 138.856C9.54649 138.395 9.69697 138.014 10.0066 137.691C10.1412 137.551 10.2852 137.444 10.4429 137.367V138.856C10.4429 139.546 10.6114 140.093 10.9454 140.483C11.3054 140.902 11.7158 141.114 12.1651 141.114C12.474 141.114 12.937 141.005 13.3855 140.482C13.7182 140.093 13.8874 139.546 13.8874 138.856V113.826C13.8874 113.359 13.824 112.867 13.698 112.364C13.5086 111.607 12.919 111.173 12.0809 111.173C11.2428 111.173 10.6524 111.607 10.4638 112.364C10.3378 112.866 10.2744 113.358 10.2744 113.826V133.05C10.2744 133.516 10.121 133.909 9.80497 134.253C9.67249 134.397 9.53209 134.507 9.37729 134.585V113.712C9.37729 112.612 9.73657 111.718 10.4753 110.979C11.2522 110.202 12.1457 109.825 13.2084 109.825H15.4634" fill="#D2AC69"/>
<path d="M36.0915 109.89C36.5616 109.89 37.0426 109.914 37.5207 109.963C38.7288 110.086 39.8542 110.404 40.8651 110.909C41.845 111.4 42.6492 112.102 43.2569 112.995C43.8523 113.872 44.154 114.967 44.154 116.25V135.584H38.0686C37.0404 135.584 36.1469 135.225 35.3362 134.486C34.5975 133.675 34.2382 132.782 34.2382 131.753V123.974C34.2382 122.818 33.7659 121.884 32.8709 121.271C32.0436 120.706 31.1278 120.42 30.1479 120.42C29.1679 120.42 28.2629 120.696 27.4558 121.241C26.5781 121.835 26.1137 122.78 26.1137 123.975V129.499C26.1137 130.874 26.6105 132.109 27.5897 133.173L27.6084 133.193L27.6286 133.211C28.4458 133.965 29.3652 134.432 30.3711 134.608C30.3595 134.631 30.3473 134.654 30.3351 134.677C30.2076 134.918 30.0341 135.126 29.8023 135.314C29.574 135.5 29.2385 135.656 28.8036 135.78C28.3414 135.912 27.7402 135.979 27.0173 135.979C26.5183 135.979 26.046 135.864 25.5737 135.628C25.0812 135.381 24.6319 135.048 24.2374 134.637C23.8414 134.224 23.5246 133.758 23.2956 133.25C23.0739 132.758 22.9608 132.254 22.9608 131.753V123.974C22.9608 122.92 23.2438 122.054 23.827 121.326C24.4275 120.575 25.1806 120.008 26.0655 119.64C26.9763 119.262 27.9828 119.061 29.0578 119.043C29.1039 119.043 29.1499 119.042 29.196 119.042C30.2098 119.042 31.1623 119.224 32.0278 119.583C32.9155 119.952 33.6701 120.511 34.2713 121.246C34.8509 121.954 35.1324 122.846 35.1324 123.972V131.752C35.1324 132.219 35.1965 132.71 35.3218 133.214C35.5111 133.97 36.1001 134.404 36.9389 134.404C37.7777 134.404 38.3674 133.97 38.556 133.214C38.682 132.711 38.7454 132.219 38.7454 131.752V118.053C38.7454 116.679 38.4963 115.454 38.0045 114.409C37.5041 113.345 36.8381 112.524 36.0252 111.966C35.2037 111.405 34.2835 111.11 33.2885 111.087C33.2561 111.087 33.2237 111.087 33.1913 111.087C32.2193 111.087 31.225 111.347 30.3538 112.023C30.0103 112.29 29.5985 112.77 29.5985 112.77C29.5985 112.77 31.0471 112.853 31.0155 114.275C31.0155 114.693 30.8959 115.016 30.6504 115.261C30.4013 115.51 30.1061 115.626 29.7216 115.626C29.3371 115.626 29.0275 115.51 28.7503 115.272C28.5271 114.983 28.4119 114.65 28.399 114.252C28.3839 113.816 28.4739 113.438 28.6733 113.096L28.6755 113.092L28.6776 113.087C29.1017 112.337 29.7828 111.693 30.703 111.174C31.662 110.634 32.7348 110.261 33.8919 110.068C34.6104 109.949 35.3491 109.888 36.0879 109.888" fill="#D2AC69"/>
<path d="M127.305 109.89C127.776 109.89 128.256 109.914 128.735 109.963C129.943 110.086 131.068 110.404 132.079 110.909C133.059 111.4 133.863 112.102 134.471 112.995C135.066 113.872 135.368 114.967 135.368 116.25V135.584H129.282C128.254 135.584 127.361 135.225 126.55 134.486C125.811 133.675 125.452 132.782 125.452 131.753V123.974C125.452 122.818 124.98 121.884 124.085 121.271C123.258 120.706 122.342 120.42 121.362 120.42C120.382 120.42 119.477 120.696 118.67 121.241C117.792 121.835 117.328 122.78 117.328 123.975V129.499C117.328 130.874 117.824 132.109 118.804 133.173L118.822 133.193L118.842 133.211C119.66 133.965 120.579 134.432 121.585 134.608C121.573 134.631 121.561 134.654 121.549 134.677C121.422 134.918 121.248 135.126 121.016 135.314C120.788 135.5 120.452 135.656 120.018 135.78C119.555 135.912 118.954 135.979 118.231 135.979C117.732 135.979 117.26 135.864 116.788 135.628C116.295 135.381 115.846 135.048 115.451 134.637C115.055 134.224 114.738 133.758 114.51 133.25C114.288 132.758 114.175 132.254 114.175 131.753V123.974C114.175 122.92 114.458 122.054 115.041 121.326C115.641 120.575 116.394 120.008 117.279 119.64C118.19 119.262 119.197 119.061 120.272 119.043C120.318 119.043 120.364 119.042 120.41 119.042C121.424 119.042 122.376 119.224 123.242 119.583C124.129 119.952 124.884 120.511 125.485 121.246C126.065 121.954 126.346 122.846 126.346 123.972V131.752C126.346 132.219 126.41 132.71 126.536 133.214C126.725 133.97 127.314 134.404 128.153 134.404C128.992 134.404 129.581 133.97 129.77 133.214C129.896 132.711 129.959 132.219 129.959 131.752V118.053C129.959 116.679 129.71 115.454 129.218 114.409C128.718 113.345 128.052 112.524 127.239 111.966C126.418 111.405 125.497 111.11 124.502 111.087C124.47 111.087 124.438 111.087 124.405 111.087C123.433 111.087 122.439 111.347 121.568 112.023C121.224 112.29 120.812 112.77 120.812 112.77C120.812 112.77 122.261 112.853 122.229 114.275C122.229 114.693 122.11 115.016 121.864 115.261C121.615 115.51 121.32 115.626 120.936 115.626C120.551 115.626 120.241 115.51 119.964 115.272C119.741 114.983 119.626 114.65 119.613 114.252C119.598 113.816 119.688 113.438 119.887 113.096L119.889 113.092L119.892 113.087C120.316 112.337 120.997 111.693 121.917 111.174C122.876 110.634 123.949 110.261 125.106 110.068C125.824 109.949 126.563 109.888 127.302 109.888" fill="#D2AC69"/>
<path d="M49.9068 102.158C51.0063 102.158 51.9005 102.517 52.6399 103.255C53.3786 103.994 53.7379 104.889 53.7379 105.988V109.824H58.248V110.495H55.5444C54.7099 110.495 54.121 110.917 53.9287 111.652C53.802 112.138 53.7379 112.622 53.7379 113.092V131.752C53.7379 132.219 53.802 132.711 53.9273 133.213C54.1166 133.97 54.7063 134.404 55.5444 134.404C56.3825 134.404 56.9722 133.97 57.1615 133.213C57.2868 132.71 57.3509 132.219 57.3509 131.752V114.109H58.2473V131.752C58.2473 132.784 57.8851 133.681 57.1399 134.495C56.4034 135.227 55.512 135.583 54.4169 135.583H48.3315V102.158H49.9075" fill="#D2AC69"/>
<path d="M74.9894 109.89C75.4596 109.89 75.9405 109.914 76.4186 109.963C77.6268 110.086 78.7521 110.404 79.7637 110.909C80.7437 111.4 81.5479 112.102 82.1556 112.995C82.751 113.872 83.0527 114.967 83.0527 116.25V135.584H76.9673C75.9391 135.584 75.0449 135.225 74.2349 134.486C73.4962 133.675 73.1369 132.782 73.1369 131.753V123.974C73.1369 122.818 72.6645 121.884 71.7696 121.271C70.9423 120.706 70.0265 120.42 69.0473 120.42C68.0681 120.42 67.1623 120.696 66.3552 121.241C65.4775 121.835 65.0131 122.78 65.0131 123.975V129.499C65.0131 130.874 65.5099 132.109 66.4891 133.173L66.5078 133.193L66.528 133.211C67.3452 133.965 68.2646 134.432 69.2705 134.608C69.259 134.631 69.2467 134.654 69.2345 134.677C69.1078 134.917 68.9335 135.125 68.7017 135.314C68.4734 135.5 68.1379 135.656 67.703 135.78C67.2408 135.912 66.6396 135.979 65.9167 135.979C65.4178 135.979 64.9454 135.864 64.4731 135.628C63.9806 135.381 63.5314 135.048 63.1368 134.637C62.7408 134.224 62.424 133.758 62.195 133.25C61.9733 132.757 61.8602 132.254 61.8602 131.753V123.973C61.8602 122.92 62.1432 122.054 62.7264 121.325C63.3269 120.574 64.08 120.007 64.9649 119.639C65.8749 119.261 66.8822 119.061 67.9565 119.043C68.0026 119.042 68.0486 119.041 68.0947 119.041C69.1078 119.041 70.061 119.223 70.9265 119.582C71.8142 119.951 72.5688 120.511 73.17 121.245C73.7496 121.953 74.0311 122.846 74.0311 123.972V131.752C74.0311 132.219 74.0952 132.711 74.2205 133.214C74.4098 133.97 74.9995 134.404 75.8376 134.404C76.6757 134.404 77.2661 133.97 77.4547 133.214C77.5807 132.71 77.6441 132.219 77.6441 131.753V118.053C77.6441 116.681 77.3949 115.455 76.9032 114.409C76.4028 113.346 75.7368 112.524 74.9239 111.967C74.1024 111.406 73.1822 111.11 72.1872 111.088C72.1548 111.088 72.1224 111.087 72.09 111.087C71.118 111.087 70.1633 111.403 69.2525 112.024L68.3028 112.672L69.3288 113.191C69.3864 113.22 69.4382 113.266 69.4879 113.332L69.516 113.37L69.5491 113.403C69.7982 113.653 69.9142 113.93 69.9142 114.276C69.9142 114.694 69.7946 115.016 69.5491 115.262C69.3 115.511 69.0048 115.627 68.6203 115.627C68.2358 115.627 67.9262 115.511 67.649 115.273C67.4258 114.985 67.3106 114.651 67.2977 114.254C67.2826 113.817 67.3726 113.439 67.572 113.097L67.5742 113.093L67.5763 113.089C68.0004 112.339 68.6815 111.695 69.6017 111.176C70.5607 110.635 71.6342 110.263 72.7905 110.07C73.5091 109.95 74.2478 109.89 74.9865 109.89" fill="#D2AC69"/>
<path d="M88.8048 102.158C89.9042 102.158 90.7985 102.517 91.5379 103.255C92.2766 103.994 92.6359 104.889 92.6359 105.988V131.752C92.6359 132.218 92.6993 132.71 92.8253 133.213C93.0146 133.97 93.6043 134.404 94.4424 134.404C95.2805 134.404 95.8702 133.97 96.0595 133.213C96.1855 132.711 96.2489 132.219 96.2489 131.752V120.477C96.2489 118.462 96.5095 116.74 97.0236 115.357C97.5334 113.984 98.1878 112.866 98.9683 112.034C99.7387 111.212 100.621 110.605 101.592 110.23C102.581 109.848 103.551 109.655 104.476 109.655C106.484 109.655 107.872 110.055 108.599 110.845C109.318 111.628 109.577 112.527 109.388 113.593C109.187 114.735 108.533 115.91 107.445 117.083C106.343 118.273 104.869 119.199 103.066 119.836L100.952 120.582C101.149 120.504 101.343 120.418 101.534 120.325C102.635 119.783 103.583 119.101 104.348 118.294C105.115 117.487 105.71 116.594 106.116 115.64C106.53 114.665 106.718 113.767 106.676 112.969C106.628 112.079 106.268 111.354 105.609 110.816C105.114 110.414 104.446 110.209 103.623 110.209C103.352 110.209 103.056 110.232 102.747 110.276C102.083 110.366 101.401 110.638 100.72 111.085C100.042 111.53 99.4255 112.175 98.8884 113.002C98.3614 113.813 97.9337 114.848 97.6162 116.077C97.3022 117.291 97.1431 118.77 97.1431 120.476V121.155H106.842C107.937 121.155 108.828 121.511 109.565 122.243C110.31 123.058 110.673 123.955 110.673 124.986V135.582H107.521V127.242C107.521 125.869 107.024 124.634 106.045 123.568L106.035 123.558L106.025 123.547C105.032 122.555 103.789 122.052 102.331 122.052H97.1424V132.164C97.0394 133.021 96.6766 133.784 96.0336 134.496C95.297 135.227 94.4064 135.582 93.312 135.582H87.2266V102.157H88.8026" fill="#D2AC69"/>
<path d="M58.4366 50.032C58.4366 50.032 54.5832 56.476 56.2903 56.1412C56.4192 56.116 56.5286 56.0368 56.6172 55.9396C57.2774 55.2138 57.9701 56.5602 56.1197 57.34C55.3968 57.6445 51.2669 57.2543 58.4374 50.0327L58.4366 50.032Z" fill="#D2AC69"/>
<path d="M55.6639 57.6408C55.1916 57.6408 54.6062 57.4752 54.2844 56.9986C53.455 55.7703 54.797 53.3712 58.2739 49.8699L59.5944 48.54L58.6325 50.1485C57.181 52.5764 55.805 55.4686 56.1146 55.9085C56.1341 55.9366 56.227 55.9193 56.2457 55.9157C56.3285 55.8992 56.4012 55.8358 56.4473 55.7847C56.6705 55.5392 56.9441 55.4456 57.1802 55.5348C57.3962 55.6162 57.5338 55.8322 57.5395 56.0986C57.5438 56.306 57.4596 57.0224 56.2082 57.5501C56.075 57.6063 55.8821 57.6416 55.6639 57.6416V57.6408ZM57.3257 51.5324C54.1613 55.0337 54.3845 56.329 54.6638 56.743C54.995 57.234 55.8086 57.2211 56.0304 57.1282C56.8152 56.7977 57.0874 56.3722 57.0823 56.108C57.0809 56.0237 57.0499 55.9748 57.0197 55.964C56.9779 55.9488 56.8872 55.982 56.7857 56.0936C56.651 56.2419 56.4991 56.3333 56.3335 56.3657C55.9836 56.4341 55.8115 56.2743 55.7402 56.1728C55.5329 55.8783 55.4616 55.2087 56.7576 52.6217C56.9462 52.2444 57.1414 51.8736 57.3257 51.5331V51.5324Z" fill="#D2AC69"/>
<path d="M81.9597 71.2805C81.9597 71.2805 83.9923 64.771 82.3716 63.8357C81.2736 63.0379 82.8648 61.4626 84.1125 62.472C85.3603 63.4814 86.2481 65.3966 81.9597 71.2805Z" fill="#D2AC69"/>
<path d="M80.9496 73.2872L81.6098 71.1718C82.4169 68.5848 83.1305 64.6968 82.188 64.1532L82.1556 64.1324C81.7805 63.8602 81.5947 63.4664 81.6451 63.0524C81.7049 62.5656 82.0814 62.1142 82.6056 61.9025C83.1917 61.6656 83.8245 61.7693 84.3422 62.1876C86.3863 63.84 85.7426 66.7114 82.2549 71.4965L80.9496 73.2879V73.2872ZM82.5732 63.5304C83.7813 64.2605 83.3659 67.1816 82.8756 69.2962C85.9658 64.442 84.5316 63.282 83.8821 62.7564C83.4653 62.4195 83.0757 62.5016 82.8799 62.5808C82.6077 62.6909 82.3989 62.9213 82.3716 63.1409C82.3536 63.2871 82.4198 63.4145 82.5732 63.5304Z" fill="#D2AC69"/>
<path d="M69.2496 35.3052C69.2496 35.3052 74.8792 38.2673 76.109 36.8568C77.1033 35.933 78.3425 37.7978 77.112 38.8281C75.8815 39.8585 74.1974 40.6469 69.2496 35.3059V35.3052Z" fill="#D2AC69"/>
<path d="M75.3775 39.9398C74.0383 39.9398 72.1145 38.9375 68.9803 35.5535L67.5295 33.9868L69.4195 34.9804C71.6508 36.154 75.1162 37.4371 75.8326 36.6155L75.8592 36.5882C76.199 36.2728 76.621 36.1663 77.017 36.2951C77.4828 36.4471 77.8529 36.9043 77.9602 37.4587C78.0797 38.08 77.8558 38.6805 77.346 39.1082C76.8161 39.5517 76.2098 39.9398 75.3775 39.9398ZM70.9387 36.5119C74.831 40.2595 76.045 39.2435 76.8766 38.5473C77.2877 38.2031 77.2819 37.805 77.2416 37.5983C77.1862 37.3096 77.0004 37.0605 76.7902 36.9921C76.6505 36.9467 76.5122 36.9863 76.3697 37.1145C75.4279 38.1542 72.8078 37.3103 70.9394 36.5126L70.9387 36.5119Z" fill="#D2AC69"/>
<path d="M100.161 81.9195C100.161 81.9195 98.933 92.2565 88.249 85.2869C83.3472 81.648 81.1188 80.9331 79.2403 82.224C79.2403 82.224 81.2448 78.9804 88.9769 83.2284C93.2522 85.5771 96.6787 86.7003 100.161 81.9202V81.9195Z" fill="#D2AC69"/>
<path d="M94.6598 88.0689C92.7878 88.0689 90.5753 87.2416 88.0488 85.5943L88.0308 85.5813C83.3486 82.1052 81.1829 81.334 79.4477 82.5264L78.0156 83.5106L78.9293 82.0324C79.0186 81.8884 81.2081 78.5433 89.1533 82.908C93.1334 85.0946 96.449 86.3942 99.8654 81.7048L100.69 80.573L100.525 81.9633C100.505 82.134 99.9936 86.1566 96.9386 87.5851C96.2474 87.9084 95.4871 88.0696 94.6605 88.0696L94.6598 88.0689ZM88.4585 84.9866C91.8677 87.2085 94.6152 87.8601 96.6247 86.9227C98.1994 86.1883 99.0166 84.5942 99.4241 83.3925C98.0266 84.88 96.5534 85.5921 94.8708 85.6137C92.9945 85.6324 91.0872 84.8059 88.8005 83.5495C85.8017 81.9021 83.7065 81.4161 82.278 81.4161C82.2629 81.4161 82.2478 81.4161 82.2326 81.4161C83.7749 81.8085 85.7253 82.9584 88.4585 84.9866Z" fill="#D2AC69"/>
<path d="M51.4102 91.2353C46.6862 91.2353 43.0466 90.3266 40.5425 88.5144C37.9361 86.6287 35.5399 83.8409 35.5399 80.2272C35.5399 76.6135 37.8922 74.0481 40.4114 72.4209C44.1281 70.0205 50.0206 70.1515 57.5057 71.9789C64.4904 73.6845 66.366 78.1219 66.366 78.1219L65.0722 77.4458C59.4518 74.9129 48.0809 71.0292 42.0358 74.9359C40.4035 75.9907 38.5351 77.7216 38.5351 80.2265C38.5351 82.8609 40.469 84.8049 42.2971 86.0865C49.5706 91.1856 62.8099 87.2349 65.4286 86.543L67.7974 85.8821C67.7974 85.8821 65.3551 89.6167 59.1278 90.5793C56.2997 91.0164 53.725 91.2345 51.4109 91.2345L51.4102 91.2353Z" fill="#D2AC69"/>
<path d="M51.4102 91.9676C46.5365 91.9676 42.7356 91.0057 40.1134 89.1078C37.6927 87.3567 34.8077 84.3947 34.8077 80.228C34.8077 75.8267 38.0693 73.0626 40.014 71.8069C43.681 69.4381 49.459 69.2617 57.6792 71.2691C64.9382 73.041 66.9578 77.6432 67.0399 77.8383L67.8334 79.7161L64.7518 78.1062C57.2623 74.7344 47.4718 72.2958 42.4332 75.5523C40.3322 76.9103 39.2674 78.4835 39.2674 80.228C39.2674 82.1137 40.428 83.8835 42.7176 85.4883C47.1233 88.5771 54.5472 88.7355 64.7827 85.9599C64.9598 85.9117 65.1132 85.8707 65.2414 85.8368L69.475 84.6553L68.4101 86.2839C68.3028 86.4474 65.7151 90.3037 59.2394 91.3045C56.3897 91.7451 53.7559 91.9683 51.4109 91.9683L51.4102 91.9676ZM47.8555 71.3418C44.8913 71.3418 42.5578 71.9063 40.8089 73.0359C39.1147 74.1303 36.2722 76.52 36.2722 80.2273C36.2722 83.9346 38.8274 86.3703 40.9716 87.9212C43.3397 89.6341 46.8518 90.5031 51.4102 90.5031C53.6803 90.5031 56.2392 90.2857 59.0155 89.8566C61.938 89.4051 63.9763 88.3179 65.286 87.3402C65.2471 87.351 65.2068 87.3618 65.1658 87.3726C63.4536 87.837 59.4432 88.9242 55.0008 89.2748C49.3754 89.7191 44.9604 88.8479 41.8774 86.6864C39.1745 84.7914 37.8036 82.6184 37.8036 80.2273C37.8036 77.9859 39.1298 75.944 41.639 74.3219C47.9434 70.2474 59.1523 74.1527 64.0498 76.2047C62.7941 74.967 60.6938 73.5111 57.3329 72.6903C53.6508 71.7918 50.5022 71.3418 47.8562 71.3418H47.8555Z" fill="#D2AC69"/>
<path d="M95.8875 94.3962C92.713 94.3962 89.4363 93.5877 86.8205 92.7136C82.0239 91.1102 76.9716 88.4411 73.6344 85.7483C70.6515 83.3406 67.2811 82.7222 63.6171 83.9102L60.6377 85.0139C60.6377 85.0139 62.5205 82.0619 65.9837 81.1857C67.9162 80.6968 71.748 80.3786 75.5151 83.4191C81.5321 88.2755 94.1688 93.4689 100.273 90.5514C102.803 89.3418 105.53 86.8384 105.53 82.8971C105.53 79.4685 103.089 77.1789 101.227 76.0917C96.7284 73.4658 83.7663 78.256 83.7663 78.256C83.7663 78.256 84.7915 75.0923 86.5203 70.6139C88.2619 66.1017 89.1461 62.9646 88.1244 61.0156C87.1711 59.1983 84.6051 58.3559 80.4939 58.5064C80.4514 58.5316 80.4046 58.5597 80.3535 58.5906C79.2072 74.3824 72.9727 75.8728 72.2203 75.7763C71.7927 75.7216 70.9963 75.2802 70.6932 74.9742C66.9615 71.2022 69.0639 65.3788 72.9742 60.8853C74.4912 59.1422 77.467 56.6733 77.472 56.5545C75.2321 56.8742 68.9083 59.1198 55.7388 72.4528L52.7523 71.1856C71.4039 52.3014 77.6031 53.9517 78.786 54.2332C80.0165 54.5262 80.5075 55.4025 80.5047 55.509C85.7981 55.337 89.2563 56.723 90.7769 59.626C92.3076 62.547 91.6971 66.7511 88.9625 72.1216C88.537 72.9568 88.0942 73.7531 87.6615 74.489C88.3663 74.2082 89.1223 73.9281 89.9115 73.6653C95.4439 71.8228 99.7582 71.7688 102.733 73.5033C105.582 75.165 108.525 78.3251 108.525 82.8964C108.525 89.2979 104.057 92.0613 101.564 93.2529C99.8388 94.0773 97.8833 94.397 95.8867 94.397L95.8875 94.3962ZM77.6146 60.3453C76.5987 60.7946 75.6965 61.9106 75.0759 62.6306C72.4212 65.7071 69.8415 71.0186 72.576 73.0792C73.2795 73.1375 76.7088 67.7728 77.6146 60.3453Z" fill="#D2AC69"/>
<path d="M95.8874 95.1285C93.132 95.1285 90.0036 94.5497 86.5886 93.4077C81.715 91.7784 76.5749 89.0618 73.175 86.3172C70.4002 84.078 67.266 83.5005 63.8575 84.6014L58.8499 86.4561L60.0214 84.6194C60.1049 84.4891 62.1029 81.4118 65.8051 80.4751C67.4604 80.0561 71.7646 79.4484 75.9758 82.8482C79.0279 85.3113 83.6698 87.7464 88.0913 89.2044C93.168 90.8777 97.3822 91.121 99.9576 89.8898C101.413 89.1943 104.799 87.12 104.799 82.8957C104.799 79.3022 101.783 77.2625 100.858 76.7232C97.4153 74.7129 87.5369 77.6433 84.0204 78.9422L82.6056 79.4649L83.0707 78.03C83.0808 77.9983 84.1219 74.7957 85.8377 70.3497C87.5009 66.0398 88.3555 63.0317 87.4764 61.3548C86.5332 59.5562 83.5589 59.184 81.0396 59.2243C80.2267 69.1149 77.4094 73.3773 75.1651 75.2126C73.9454 76.2098 72.7373 76.5799 72.1282 76.5021C71.5147 76.4237 70.5737 75.893 70.1734 75.4884C68.269 73.5631 67.6051 70.9884 68.2538 68.0421C68.7953 65.5841 70.2756 62.8718 72.4226 60.4037C72.9943 59.7463 73.7496 59.0054 74.4869 58.3157C71.1418 59.8925 65.3861 63.7279 56.2601 72.9669L55.9109 73.3205L51.4742 71.4384L52.2317 70.6709C64.5365 58.2127 73.769 52.2799 78.9307 53.5147L78.9559 53.5205C79.8682 53.7379 80.5579 54.2621 80.9294 54.7661C86.2762 54.6746 89.8078 56.1974 91.4256 59.2855C93.0722 62.429 92.4631 66.8592 89.6148 72.4529C89.5046 72.6696 89.3909 72.8877 89.2742 73.1073C89.4103 73.0605 89.5457 73.0145 89.6803 72.9698C95.4216 71.0582 99.9367 71.0244 103.102 72.8697C104.952 73.949 109.256 77.0861 109.256 82.895C109.256 85.87 108.339 88.4318 106.53 90.5076C105.345 91.8691 103.823 92.9822 101.879 93.9117C100.192 94.7181 98.1756 95.1278 95.8867 95.1278L95.8874 95.1285ZM67.1522 82.5869C69.6319 82.5869 71.9561 83.4523 74.0945 85.1781C77.3676 87.8205 82.3334 90.4421 87.0523 92.0196C90.3175 93.1111 93.2904 93.6648 95.8874 93.6648C97.956 93.6648 99.7603 93.3033 101.249 92.592C105.592 90.5162 107.793 87.2539 107.793 82.8965C107.793 77.8464 103.998 75.0873 102.365 74.1355C99.5796 72.5112 95.4677 72.5868 90.144 74.3594C89.4218 74.5999 88.6781 74.8721 87.9336 75.1687L85.9471 75.96L87.0314 74.1175C87.4937 73.3327 87.9235 72.5493 88.3109 71.7897C90.931 66.6432 91.543 62.6652 90.1289 59.9659C88.7486 57.3321 85.5194 56.0793 80.5284 56.2413L79.7522 56.2665L79.7681 55.6646C79.6529 55.5026 79.3116 55.1109 78.6161 54.9453L78.5894 54.9389C78.0343 54.8064 76.3466 54.4025 72.5494 56.2233C67.6836 58.5569 61.4578 63.5033 54.0331 70.9337L55.5667 71.5845C68.287 58.7765 74.6791 56.2125 77.3676 55.8288L78.2402 55.7042L78.2021 56.5848C78.187 56.934 78.1438 56.9729 77.0321 57.9729C76.0759 58.8333 74.4746 60.2726 73.525 61.3641C71.5356 63.6501 70.1705 66.1334 69.6816 68.3561C69.1373 70.8278 69.6521 72.8813 71.2123 74.4581C71.419 74.6669 72.049 75.0067 72.3002 75.047C72.6336 75.047 74.119 74.6337 75.6655 72.5508C77.1516 70.5499 79.0445 66.4941 79.6219 58.536L79.6493 58.1601L80.2771 57.78L80.465 57.7728C84.8815 57.6108 87.6766 58.5871 88.771 60.6737C89.9122 62.8495 89.0597 66.0621 87.2014 70.8753C86.1768 73.5293 85.3963 75.7339 84.9348 77.0745C88.501 75.8952 97.7263 73.2009 101.594 75.4574C102.689 76.0968 106.26 78.5217 106.26 82.895C106.26 86.4036 104.139 89.5118 100.587 91.2103C97.6687 92.6049 93.0672 92.3861 87.6305 90.594C83.0527 89.0849 78.2338 86.5533 75.0535 83.9865C71.4888 81.1087 67.9522 81.4399 66.1615 81.8935C65.0887 82.1649 64.1758 82.661 63.4392 83.1967C64.7107 82.7899 65.9484 82.5861 67.1501 82.5861L67.1522 82.5869ZM72.3125 75.0492C72.3125 75.0492 72.3125 75.0492 72.3132 75.0492C72.3132 75.0492 72.3132 75.0492 72.3125 75.0492ZM72.5918 73.8122C72.5659 73.8122 72.5407 73.8115 72.5148 73.8086L72.3038 73.7913L72.1346 73.6639C71.3059 73.0397 70.825 72.1533 70.7047 71.0316C70.4117 68.2927 72.4104 64.5991 74.5207 62.1525L74.669 61.9797C75.3278 61.2108 76.2293 60.1581 77.3179 59.6765L78.4966 59.1552L78.3403 60.4346C77.8075 64.8043 76.4453 68.1969 75.6814 69.8306C75.1716 70.92 74.6345 71.8718 74.1283 72.5839C73.5127 73.4486 73.0606 73.8129 72.5918 73.8129V73.8122ZM76.6253 61.9941C76.3157 62.3088 76.0291 62.6436 75.7822 62.9323L75.6302 63.1094C73.7878 65.2449 71.9165 68.5865 72.1613 70.8761C72.216 71.3851 72.3737 71.8005 72.6408 72.1332C73.5386 71.0827 75.6648 67.3171 76.6253 61.9941Z" fill="#D2AC69"/>
<path d="M50.6059 67.0462C49.0817 67.0462 47.9261 66.2484 47.4091 64.8236C46.1585 61.3776 49.05 53.9487 51.696 48.3226C54.3089 42.7664 58.0284 36.2777 59.7283 35.0372C60.9062 34.1775 61.9034 34.5634 62.2771 34.7693C63.5897 35.4908 64.1736 37.4276 64.2938 41.4531C64.3622 43.7564 64.2377 45.9171 64.2175 46.2461C64.2067 47.4327 64.5609 50.0146 65.7446 50.5992C66.6165 51.0291 68.2272 50.4365 70.2151 48.9699C69.9329 48.8237 69.5059 48.6387 68.8694 48.4328C67.1465 47.874 66.8369 46.9049 66.8808 46.1907C66.9672 44.7773 68.4036 44.0328 72.2253 42.8492C75.9161 41.7065 78.5088 42.0867 79.5701 42.9334C80.1122 41.4711 80.519 39.8648 80.519 38.3376C80.519 36.9408 81.1562 35.827 82.2679 35.2812C83.7792 34.5389 85.8377 34.9875 87.7737 36.4829C91.2261 39.1484 93.4834 48.8259 88.4736 53.4353L88.7227 51.9874C89.5169 45.601 87.773 39.9346 85.4064 38.4816C84.3494 37.8322 83.5229 37.7336 83.5135 38.3384C83.4574 42.0341 81.6998 45.876 80.4557 48.0764C80.1727 48.6833 79.29 49.4847 78.3641 49.2795C79.3721 44.8414 77.4187 42.9471 71.4045 46.218C72.4845 46.7465 73.4529 47.5112 73.6106 48.6617C73.7532 49.6992 73.1534 50.5244 72.5717 50.9391C69.2193 53.5772 66.5496 54.3432 64.4105 53.282C61.2115 51.6944 61.2122 46.7242 61.223 46.1626L61.2259 46.0942C61.4325 42.8895 61.3037 39.5825 60.9552 38.0417C59.6657 39.6812 56.9217 44.2409 54.3809 49.6517C50.5029 57.9094 49.4662 61.9392 50.0818 63.2648C50.0818 63.2648 50.4547 64.0287 51.6679 63.925C56.358 63.5247 58.7189 57.7316 58.7189 57.7316L59.832 54.8897C59.832 54.8897 60.0098 59.024 58.7678 61.266C57.6129 63.3512 55.4918 66.7344 50.9054 67.0376C50.8039 67.044 50.7045 67.0476 50.6059 67.0476V67.0462Z" fill="#D2AC69"/>
<path d="M50.6059 67.687C48.8016 67.687 47.417 66.7229 46.8072 65.0425C45.743 62.1099 47.1931 56.3931 51.1164 48.0505C53.7271 42.4993 57.5006 35.8702 59.351 34.5202C60.8659 33.415 62.2102 34.0018 62.5853 34.2077C64.1462 35.066 64.805 37.0921 64.9339 41.4344C65.0016 43.7132 64.8842 45.8235 64.8576 46.2685C64.849 47.5969 65.2874 49.6597 66.0283 50.0247C66.4157 50.2162 67.369 50.0564 68.8774 49.1096C68.8111 49.0873 68.7427 49.0642 68.6722 49.0412C66.4474 48.3197 66.1946 46.9208 66.2414 46.1504C66.3545 44.3014 68.1206 43.4482 72.0353 42.2357C75.4034 41.1925 77.8255 41.3746 79.2194 41.9888C79.6565 40.6453 79.8775 39.4198 79.8775 38.3355C79.8775 36.6853 80.6458 35.3619 81.9842 34.7038C83.7202 33.8513 86.0306 34.3258 88.164 35.9732C90.2664 37.5968 91.8504 41.4027 92.0153 45.2288C92.1708 48.8353 91.067 51.9161 88.9063 53.9041L87.5225 55.177L88.0877 51.8909C88.8703 45.5686 87.1315 40.291 85.0702 39.0245C84.6418 38.761 84.3329 38.6451 84.1464 38.599C84.011 42.5137 82.1477 46.3779 81.0238 48.3694C80.64 49.1636 79.5009 50.1853 78.2251 49.903L77.5966 49.7641L77.7391 49.1362C78.1553 47.3031 78.017 46.015 77.3496 45.5103C76.8838 45.1575 75.6806 44.8342 72.7236 46.2584C73.6121 46.9064 74.1226 47.6818 74.245 48.5732C74.4242 49.8807 73.6992 50.9139 72.9562 51.4503C69.395 54.2497 66.5064 55.0359 64.1254 53.8544C60.5729 52.0918 60.5707 46.7523 60.5822 46.1489L60.5866 46.0517C60.7313 43.8125 60.7104 41.4243 60.5513 39.7136C59.094 41.9117 56.9333 45.7213 54.9605 49.9225C50.3093 59.8275 50.3849 62.3439 50.6534 62.9725C50.6988 63.0409 50.9371 63.3447 51.6139 63.2849C55.8518 62.9235 58.104 57.5422 58.1263 57.4875L60.3418 51.8312L60.4721 54.8602C60.4793 55.0366 60.6427 59.2018 59.328 61.5749C58.3733 63.2979 56.1384 67.3328 50.9472 67.6748C50.832 67.682 50.7168 67.6863 50.6059 67.6863V67.687ZM61.2382 35.1423C60.9185 35.1423 60.5333 35.2431 60.1063 35.5549C58.6814 36.5945 55.1686 42.4445 52.2756 48.5955C48.6086 56.3924 47.0945 62.0782 48.011 64.6054C48.4322 65.7668 49.3538 66.4061 50.6059 66.4061C50.6894 66.4061 50.7758 66.4033 50.863 66.3975C54.8222 66.1361 56.7972 63.4995 58.207 60.955C58.5389 60.356 58.7614 59.5964 58.9097 58.8202C58.0169 60.5345 55.6538 64.2267 51.7219 64.5622C50.4194 64.6724 49.7153 63.9747 49.5058 63.5441C48.9996 62.4541 48.901 59.8131 53.8006 49.3781C56.2824 44.0933 59.0789 39.3889 60.4512 37.6443L61.2828 36.5873L61.5794 37.8992C61.9531 39.553 62.0705 42.9356 61.8653 46.1266L61.8631 46.1799C61.8538 46.7321 61.8617 51.3005 64.6956 52.7067C66.5906 53.6477 69.0379 52.904 72.1757 50.4344L72.2002 50.4164C72.3528 50.3077 73.1095 49.7144 72.9763 48.7474C72.8726 47.9907 72.2664 47.3513 71.123 46.7919L70.0085 46.2469L71.0986 45.6543C74.4062 43.8557 76.7693 43.4641 78.1236 44.4893C79.1042 45.2317 79.4513 46.5896 79.1582 48.5321C79.4923 48.3507 79.7702 48.0303 79.8746 47.8049L79.8977 47.7603C80.7725 46.213 82.8137 42.1954 82.872 38.3276C82.8778 37.9352 83.065 37.6083 83.3861 37.4326C84.0571 37.064 85.037 37.5025 85.7405 37.9345C88.4095 39.5739 89.9777 45.2907 89.4499 51.1961C90.3845 49.592 90.833 47.5623 90.7351 45.2857C90.5875 41.8649 89.177 38.3758 87.3806 36.9891C85.6426 35.647 83.8361 35.2229 82.5487 35.8558C81.6516 36.2965 81.1584 37.1777 81.1584 38.3377C81.1584 39.7647 80.8258 41.3861 80.1691 43.1566L79.861 43.9868L79.169 43.4345C78.2409 42.6944 75.7922 42.4157 72.4133 43.4619C68.7226 44.6053 67.5785 45.2518 67.5187 46.231C67.4755 46.9417 67.9961 47.4773 69.066 47.8244C69.6478 48.013 70.133 48.2074 70.5089 48.4025L70.9661 48.6394L70.3973 48.0361L70.434 48.0022L70.596 48.1909L71.069 48.692L71.4226 48.8749L70.5946 49.4854C69.0307 50.6396 66.87 51.8686 65.4602 51.1738C63.5602 50.2364 63.5753 46.28 63.576 46.2404L63.5774 46.2065C63.5926 45.9646 63.7214 43.7744 63.653 41.4718C63.5429 37.7552 63.0389 35.9185 61.9682 35.3302C61.8041 35.2402 61.5528 35.1423 61.2374 35.1423H61.2382Z" fill="#D2AC69"/>
<path d="M65.574 33.8161C64.993 33.8161 64.386 33.6923 63.792 33.3791C60.9696 31.8909 57.8261 26.7306 60.5434 18.4369C60.7284 17.8717 61.8048 16.5138 62.9712 16.5138C62.9784 16.5138 62.9849 16.5138 62.9914 16.5138C63.9446 16.521 64.9195 17.0085 65.9527 17.9999L65.2594 15.5829L65.245 15.4914C65.1845 15.1084 63.8302 6.05725 69.3986 2.40541C72.1469 0.603251 74.3746 1.34413 75.5438 2.63941C76.8686 4.10677 77.2956 6.75205 76.3524 9.56005C77.7154 9.34333 79.1748 9.45853 80.3009 10.4197C82.067 11.9267 82.3334 14.8053 81.0821 19.3398C81.5616 19.2498 82.1441 19.1699 82.5545 19.5393C84.9182 21.6654 82.517 30.0189 81.0418 31.2839C79.2986 32.7779 76.8089 32.2357 76.1933 29.3068L76.7657 29.8029C77.2531 30.1924 78.6391 31.6209 79.8206 29.6531C81.0641 27.5824 81.3492 23.5353 80.8942 22.7483C80.3952 23.1537 80.0453 23.5561 79.3714 23.9694C78.7853 24.3294 77.2618 24.6728 76.5202 24.3013C77.4965 23.8571 77.8738 22.8534 77.9652 22.5042C80.2166 13.9283 78.6499 12.9477 78.3562 12.6971C77.5908 12.0441 75.2155 12.8281 73.867 13.6201C73.867 13.6201 70.0394 16.9782 69.4397 18.5687C68.7917 20.2873 69.7651 24.8579 70.0258 26.4592C70.0819 26.8055 69.7622 26.9574 69.7622 26.9574C69.7622 26.9574 69.3187 27.0942 69.1178 26.7817C64.3133 19.3017 63.5335 18.946 63.1706 19.7999C61.0373 27.2267 64.6142 30.5495 64.9382 30.844C67.3387 33.0285 68.4338 30.5704 68.4338 30.5704L68.6974 29.8331C69.3662 32.4697 66.8484 33.8147 65.5718 33.8147L65.574 33.8161ZM68.1926 14.95L68.4166 15.7297L71.9489 11.386C74.2234 8.58877 74.2039 5.62597 73.3205 4.64749C72.7438 4.00813 71.7624 4.43797 71.041 4.91101C67.3495 7.33237 68.0897 14.1436 68.1926 14.9493V14.95Z" fill="#D2AC69"/>
<path d="M65.574 34.2734C64.8662 34.2734 64.1945 34.1085 63.5782 33.7838C61.866 32.8809 60.3994 30.9426 59.6534 28.599C58.7117 25.6384 58.8694 22.0751 60.1078 18.2951C60.3569 17.5355 61.5931 16.0574 62.9705 16.0574H62.9849C63.6962 16.0624 64.4004 16.2899 65.1161 16.7471L64.8065 15.6556L64.7921 15.5642C64.7294 15.1689 63.3334 5.83696 69.1466 2.02456C72.1361 0.0639974 74.5862 0.898477 75.8822 2.33416C77.2582 3.8584 77.6686 6.42952 76.9882 9.02728C78.4512 8.92504 79.6622 9.27496 80.5975 10.0727C82.422 11.6286 82.7827 14.4899 81.6962 18.807C82.0778 18.8013 82.5055 18.8812 82.8605 19.2002C83.6417 19.9029 84.0276 21.165 84.006 22.9514C83.9664 26.2792 82.4702 30.6633 81.3398 31.6324C80.3592 32.4734 79.1309 32.7563 78.0552 32.3906C76.8874 31.9938 76.0673 30.9318 75.7462 29.4011L75.4668 28.072L77.0594 29.4522C77.099 29.4839 77.1444 29.5221 77.1941 29.5646C77.5123 29.8338 78.0451 30.2846 78.539 30.2025C78.8479 30.1514 79.1474 29.8878 79.429 29.4184C80.3902 27.8178 80.725 24.9141 80.6249 23.5914C80.3441 23.8413 80.0395 24.0976 79.6111 24.3611C78.8969 24.7996 77.2178 25.1632 76.3157 24.7125L75.4582 24.2841L76.3308 23.8874C77.2128 23.4863 77.4936 22.5014 77.5231 22.3905C79.4297 15.1286 78.5578 13.4574 78.0948 13.0766L78.0602 13.0478C77.598 12.6532 75.6281 13.1313 74.137 13.996C73.0714 14.9349 70.3224 17.5298 69.8688 18.7329C69.3569 20.0915 70.015 23.7743 70.331 25.5441C70.3901 25.8738 70.4412 26.1611 70.4779 26.3886C70.555 26.8595 70.2626 27.2296 69.9588 27.3736L69.8976 27.3974C69.6096 27.4859 69.0401 27.509 68.7334 27.0316C65.9398 22.6821 64.2139 20.3097 63.599 19.9706C61.6536 26.8005 64.6294 29.9462 65.2464 30.5085C65.9153 31.1176 66.5071 31.3739 67.0054 31.2724C67.6181 31.1471 67.9622 30.4962 68.0112 30.3976L68.7722 28.2686L69.1416 29.723C69.4246 30.8375 69.2251 31.8758 68.5649 32.7246C67.7729 33.7427 66.4603 34.2748 65.5733 34.2748L65.574 34.2734ZM62.9712 16.5138V16.971C62.0892 16.971 61.1302 18.1151 60.9782 18.5788C58.3546 26.5859 61.3512 31.5741 64.0058 32.9738C64.489 33.2286 65.0174 33.3582 65.5747 33.3582C66.2234 33.3582 67.2394 32.9385 67.8442 32.1609C67.9586 32.0133 68.0544 31.8599 68.13 31.6994C67.8859 31.9053 67.5778 32.086 67.2005 32.1645C66.3977 32.333 65.5337 32.0025 64.6322 31.1824C63.9432 30.5553 60.6132 27.0532 62.7329 19.6732L62.7516 19.6206C62.91 19.2484 63.149 19.0461 63.4615 19.0194C64.1369 18.9618 64.9649 19.468 69.4987 26.5254C69.5167 26.5305 69.5484 26.5305 69.5801 26.5276C69.5398 26.3087 69.4894 26.0265 69.431 25.7025C68.9378 22.9449 68.459 19.8791 69.0134 18.4074C69.6355 16.7579 73.1664 13.6274 73.5667 13.276L73.5991 13.2472L73.6366 13.2256C74.8051 12.5394 77.5685 11.4227 78.6542 12.3486L78.6766 12.3666C79.1698 12.772 80.6702 14.0068 78.4087 22.6202C78.3648 22.7886 78.174 23.4186 77.6808 23.9867C78.2309 23.9349 78.8299 23.765 79.133 23.5792C79.5564 23.3193 79.8415 23.0644 80.1425 22.7944C80.2879 22.6641 80.4384 22.5287 80.6062 22.3926L81.0223 22.0542L81.2909 22.5186C81.8618 23.5058 81.4925 27.7581 80.2138 29.8878C79.7875 30.5978 79.2749 31.0067 78.6888 31.1032C78.1855 31.1867 77.7276 31.0269 77.3489 30.8087C77.6246 31.1478 77.9616 31.3905 78.3497 31.5222C79.1165 31.7829 80.0122 31.5633 80.7444 30.9354C81.6012 30.201 83.0527 26.159 83.0916 22.9384C83.1096 21.448 82.818 20.3896 82.2492 19.8784C82.0253 19.6768 81.6689 19.6948 81.167 19.7891L80.447 19.9245L80.6422 19.2182C81.8302 14.9111 81.6214 12.147 80.005 10.7675C79.1359 10.0266 77.9321 9.77248 76.4251 10.0122L75.6792 10.131L75.9197 9.41464C76.7635 6.90112 76.4834 4.3624 75.2047 2.94616C74.1629 1.792 72.157 1.14472 69.6506 2.78848C64.3255 6.2812 65.6395 15.0494 65.6978 15.4209L65.7079 15.4842L66.8614 19.5047L65.6366 18.3297C64.6898 17.421 63.8237 16.9768 62.9892 16.9703L62.9719 16.5124L62.9712 16.5138ZM68.2186 16.6982L67.739 15.0069C67.6368 14.2062 66.8563 7.10848 70.7904 4.528C72.4514 3.43864 73.3018 3.94264 73.6603 4.34008C74.6762 5.46616 74.7706 8.64064 72.3038 11.674L68.2186 16.6982ZM72.5558 4.7836C72.1462 4.7836 71.6249 5.0752 71.2922 5.29336C67.9918 7.4584 68.4914 13.5186 68.629 14.7426L71.5939 11.0966C73.7813 8.40664 73.6625 5.70808 72.9814 4.95352C72.8719 4.83184 72.7229 4.7836 72.5558 4.7836Z" fill="#D2AC69"/>
</svg>
