<svg width="23" height="18" viewBox="0 0 23 18" fill="none" xmlns="http://www.w3.org/2000/svg">
<path d="M20.0867 2.89455C17.2929 0.80415 14.6164 0.862709 14.6164 0.862709L14.3428 1.17519C17.6642 2.17167 19.2076 3.63687 19.2076 3.63687C14.4559 1.02063 8.40305 1.03935 3.46049 3.63687C3.46049 3.63687 5.06249 2.09343 8.57921 1.09695L8.38385 0.86247C8.38385 0.86247 5.72681 0.803909 2.91353 2.89431C2.91353 2.89431 0.10025 7.95447 0.10025 14.1868C0.10025 14.1868 1.74137 17.0001 6.05921 17.1369C6.05921 17.1369 6.78209 16.2772 7.36817 15.5349C4.88681 14.7926 3.94913 13.2491 3.94913 13.2491C5.50793 14.2245 7.08425 14.835 9.04841 15.2224C12.2443 15.8802 16.2194 15.2039 19.1882 13.2491C19.1882 13.2491 18.2114 14.8317 15.652 15.5546C16.2381 16.2774 16.9415 17.1174 16.9415 17.1174C21.2589 16.9809 22.9 14.1676 22.9 14.187C22.9 7.95471 20.0867 2.89455 20.0867 2.89455ZM7.85633 12.3702C6.76217 12.3702 5.86361 11.4129 5.86361 10.221C5.94353 7.36695 9.78929 7.37583 9.84929 10.221C9.84905 11.4129 8.96993 12.3702 7.85633 12.3702ZM14.9875 12.3702C13.8933 12.3702 12.9947 11.4129 12.9947 10.221C13.0826 7.37247 16.8803 7.37127 16.9804 10.221C16.9802 11.4129 16.1011 12.3702 14.9875 12.3702Z" fill="white"/>
</svg>
