<svg width="21" height="20" viewBox="0 0 21 20" fill="none" xmlns="http://www.w3.org/2000/svg">
<path d="M10.5 0.246582C8.12547 0.24668 5.82846 1.0917 4.01996 2.63043C2.21146 4.16916 1.0095 6.3012 0.62913 8.64506C0.248762 10.9889 0.714815 13.3917 1.9439 15.4233C3.17298 17.455 5.08488 18.9831 7.33752 19.7341C7.83752 19.8216 8.02502 19.5216 8.02502 19.2591C8.02502 19.0216 8.01251 18.2341 8.01251 17.3966C5.5 17.8591 4.85 16.7841 4.65 16.2216C4.42807 15.6745 4.07627 15.1897 3.625 14.8091C3.275 14.6216 2.775 14.1591 3.61249 14.1466C3.93227 14.1813 4.23898 14.2926 4.50663 14.471C4.77427 14.6494 4.99496 14.8897 5.15 15.1716C5.28677 15.4173 5.47068 15.6336 5.69119 15.8081C5.9117 15.9826 6.16447 16.1118 6.43503 16.1885C6.70559 16.2651 6.98861 16.2876 7.26788 16.2547C7.54714 16.2218 7.81717 16.134 8.06248 15.9966C8.10577 15.4882 8.33234 15.0129 8.7 14.6591C6.475 14.4091 4.15 13.5466 4.15 9.72161C4.13594 8.72776 4.50268 7.76619 5.175 7.03411C4.86928 6.17033 4.90505 5.2224 5.275 4.38411C5.275 4.38411 6.11247 4.1216 8.025 5.40911C9.66128 4.95909 11.3887 4.95909 13.025 5.40911C14.9375 4.10911 15.775 4.38411 15.775 4.38411C16.145 5.22238 16.1808 6.17034 15.875 7.03411C16.5493 7.76494 16.9164 8.72734 16.9 9.72161C16.9 13.5591 14.5625 14.4091 12.3375 14.6591C12.5761 14.901 12.7599 15.1914 12.8764 15.5106C12.9929 15.8298 13.0393 16.1704 13.0125 16.5091C13.0125 17.8466 13 18.9216 13 19.2591C13 19.5216 13.1875 19.8341 13.6875 19.7341C15.9362 18.977 17.8426 17.4453 19.0664 15.4126C20.2903 13.3799 20.7519 10.9784 20.3689 8.63682C19.9859 6.29523 18.7832 4.16595 16.9755 2.62909C15.1678 1.09223 12.8727 0.247817 10.5 0.246582Z" fill="white"/>
</svg>
