<svg width="176" height="88" viewBox="0 0 176 88" fill="none" xmlns="http://www.w3.org/2000/svg">
<path d="M73.1518 34.1185C72.5446 34.0903 71.9594 33.9601 71.3953 33.7277C70.8312 33.4963 70.3903 33.2226 70.0727 32.9041C69.3783 32.2687 69.0316 31.4441 69.0316 30.4321C69.0316 29.9701 69.205 29.5645 69.5517 29.2177C69.8984 28.871 70.3032 28.6977 70.7661 28.6977C71.2571 28.6977 71.6769 28.871 72.0236 29.2177C72.3413 29.5935 72.5006 29.9983 72.5006 30.4321C72.5006 30.895 72.3413 31.3148 72.0236 31.6897C71.9655 31.7477 71.9075 31.7917 71.8503 31.8199C71.7922 31.8489 71.7341 31.8921 71.6769 31.9501C71.8212 32.1525 72.0456 32.3048 72.3492 32.4051C72.6528 32.5072 72.9635 32.5573 73.282 32.5573C73.9174 32.5573 74.4383 32.4271 74.8431 32.1666C75.2479 31.9061 75.5515 31.6025 75.7539 31.2558C76.1007 30.6777 76.1939 30.0485 76.0355 29.3691C75.8763 28.6897 75.5075 28.1767 74.9294 27.8291C74.2931 27.4533 73.4114 27.3953 72.2841 27.6557C72.2841 27.1937 72.4143 26.7881 72.6748 26.4413C72.9353 26.0946 73.4263 25.9213 74.1497 25.9213C74.8731 25.9213 75.4363 26.0735 75.9282 26.3771C76.4192 26.6807 76.824 27.0785 77.1426 27.5695C77.4893 28.1485 77.6847 28.8209 77.7278 29.5865C77.7709 30.3529 77.6407 31.0763 77.3371 31.7548C77.0335 32.4341 76.5345 33.0061 75.8411 33.4681C75.1467 33.931 74.2509 34.1475 73.1518 34.1185Z" fill="#D2AC69"/>
<path d="M74.2368 36.2032C75.079 36.2032 75.7636 36.4909 76.3321 37.0832L76.3356 37.0867L76.3391 37.0902C76.9076 37.6596 77.1839 38.3469 77.1839 39.1934V58.5807C77.1839 59.312 77.0106 59.9069 76.655 60.3988C76.2872 60.9057 75.8182 61.3034 75.2611 61.5824C74.6909 61.8675 74.0661 62.0312 73.4034 62.0708C73.3181 62.0761 73.2327 62.0787 73.1491 62.0787C72.5974 62.0787 72.0729 61.9678 71.5906 61.7487C71.0362 61.497 70.5883 61.1151 70.2214 60.5827C69.8658 60.0679 69.6854 59.3797 69.6854 58.5376C69.6854 58.1829 69.8007 57.8899 70.0392 57.6409C70.1422 57.5326 70.253 57.4499 70.3754 57.3918V58.5376C70.3754 59.0682 70.5047 59.4889 70.7617 59.7889C71.0389 60.111 71.3539 60.2747 71.7006 60.2747C71.9382 60.2747 72.2946 60.1902 72.6396 59.7881C72.8957 59.4889 73.0259 59.0682 73.0259 58.5376V39.2805C73.0259 38.9215 72.9766 38.5431 72.8798 38.1559C72.7346 37.5733 72.2806 37.2398 71.6355 37.2398C70.9905 37.2398 70.5364 37.5742 70.3912 38.1559C70.2944 38.5422 70.2451 38.9206 70.2451 39.2805V54.0707C70.2451 54.4297 70.1272 54.7325 69.8843 54.9965C69.7822 55.1073 69.674 55.1918 69.5552 55.2525V39.1943C69.5552 38.3477 69.8315 37.6596 70.4 37.092C70.9975 36.4945 71.6848 36.2041 72.5023 36.2041H74.2368" fill="#D2AC69"/>
<path d="M90.1076 36.2525C90.4693 36.2525 90.8398 36.2709 91.2067 36.3088C92.136 36.4038 93.0019 36.6485 93.7799 37.0365C94.5331 37.4141 95.1526 37.9535 95.6199 38.6408C96.0784 39.3157 96.3107 40.1579 96.3107 41.1444V56.019H91.6282C90.8371 56.019 90.1498 55.7427 89.5259 55.1742C88.9574 54.5503 88.6811 53.863 88.6811 53.0719V47.0861C88.6811 46.1973 88.3177 45.4784 87.6295 45.0067C86.9933 44.572 86.2884 44.352 85.5351 44.352C84.7818 44.352 84.0849 44.5649 83.4645 44.9838C82.7895 45.4405 82.4322 46.1674 82.4322 47.087V51.3374C82.4322 52.3943 82.8142 53.3456 83.5683 54.164L83.5833 54.1798L83.5991 54.1948C84.2283 54.7738 84.935 55.1337 85.7094 55.2693C85.7006 55.2869 85.6909 55.3045 85.6821 55.3221C85.5844 55.5069 85.4506 55.667 85.272 55.8113C85.096 55.9539 84.8382 56.0745 84.5038 56.1695C84.1482 56.2716 83.6854 56.3226 83.1292 56.3226C82.7455 56.3226 82.3821 56.2346 82.0187 56.0525C81.6403 55.8633 81.2944 55.6072 80.9908 55.2904C80.6863 54.9727 80.4426 54.6145 80.2666 54.2229C80.0958 53.8437 80.0087 53.4565 80.0087 53.0719V47.0861C80.0087 46.2757 80.227 45.6095 80.6749 45.0489C81.1369 44.4717 81.7168 44.0352 82.397 43.7518C83.0975 43.4614 83.8719 43.3065 84.6991 43.2925C84.7343 43.2925 84.7704 43.2925 84.8056 43.2925C85.5853 43.2925 86.3183 43.4324 86.9845 43.7087C87.6674 43.9929 88.2482 44.4233 88.711 44.9882C89.1572 45.5329 89.3737 46.2193 89.3737 47.0861V53.0719C89.3737 53.4309 89.423 53.8093 89.5198 54.1957C89.665 54.7782 90.1191 55.1117 90.7641 55.1117C91.4091 55.1117 91.8632 54.7773 92.0084 54.1957C92.1052 53.8093 92.1545 53.4309 92.1545 53.071V42.5313C92.1545 41.4753 91.9626 40.5319 91.5842 39.7285C91.1988 38.9101 90.6866 38.2782 90.0618 37.8497C89.43 37.4176 88.7216 37.1905 87.9569 37.1729C87.9322 37.1729 87.9067 37.1729 87.8821 37.1729C87.1341 37.1729 86.3694 37.3736 85.6997 37.8937C85.4357 38.0987 85.1189 38.4683 85.1189 38.4683C85.1189 38.4683 86.233 38.5325 86.2092 39.6264C86.2092 39.9476 86.1177 40.1957 85.9285 40.3849C85.7366 40.5768 85.5096 40.6657 85.2139 40.6657C84.9183 40.6657 84.6798 40.5768 84.4668 40.3937C84.2952 40.172 84.2063 39.915 84.1967 39.6088C84.1852 39.2735 84.2538 38.9822 84.4078 38.7191L84.4096 38.7156L84.4114 38.7121C84.7378 38.1348 85.2614 37.6393 85.9698 37.2407C86.7082 36.8245 87.5336 36.5385 88.4233 36.3897C88.9759 36.2982 89.5444 36.2516 90.1129 36.2516" fill="#D2AC69"/>
<path d="M160.281 36.2525C160.643 36.2525 161.014 36.2709 161.381 36.3088C162.31 36.4038 163.176 36.6485 163.954 37.0365C164.707 37.4141 165.326 37.9535 165.794 38.6408C166.252 39.3157 166.485 40.1579 166.485 41.1444V56.019H161.802C161.011 56.019 160.324 55.7427 159.7 55.1742C159.131 54.5503 158.855 53.863 158.855 53.0719V47.0861C158.855 46.1973 158.492 45.4784 157.803 45.0067C157.167 44.572 156.462 44.352 155.709 44.352C154.956 44.352 154.259 44.5649 153.638 44.9838C152.963 45.4405 152.606 46.1674 152.606 47.087V51.3374C152.606 52.3943 152.988 53.3456 153.742 54.164L153.757 54.1798L153.773 54.1948C154.402 54.7738 155.109 55.1337 155.883 55.2693C155.874 55.2869 155.865 55.3045 155.856 55.3221C155.758 55.5069 155.624 55.667 155.446 55.8113C155.27 55.9539 155.012 56.0745 154.678 56.1695C154.322 56.2716 153.859 56.3226 153.303 56.3226C152.919 56.3226 152.556 56.2346 152.192 56.0525C151.814 55.8633 151.468 55.6072 151.165 55.2904C150.86 54.9727 150.616 54.6145 150.44 54.2229C150.27 53.8437 150.183 53.4565 150.183 53.0719V47.0861C150.183 46.2757 150.401 45.6095 150.849 45.0489C151.311 44.4717 151.891 44.0352 152.571 43.7518C153.271 43.4614 154.046 43.3065 154.873 43.2925C154.908 43.2925 154.944 43.2925 154.979 43.2925C155.759 43.2925 156.492 43.4324 157.158 43.7087C157.841 43.9929 158.422 44.4233 158.885 44.9882C159.331 45.5329 159.548 46.2193 159.548 47.0861V53.0719C159.548 53.4309 159.597 53.8093 159.694 54.1957C159.839 54.7782 160.293 55.1117 160.938 55.1117C161.583 55.1117 162.037 54.7773 162.182 54.1957C162.279 53.8093 162.328 53.4309 162.328 53.071V42.5313C162.328 41.4753 162.136 40.5319 161.758 39.7285C161.373 38.9101 160.86 38.2782 160.236 37.8497C159.604 37.4176 158.895 37.1905 158.131 37.1729C158.106 37.1729 158.081 37.1729 158.056 37.1729C157.308 37.1729 156.543 37.3736 155.874 37.8937C155.61 38.0987 155.293 38.4683 155.293 38.4683C155.293 38.4683 156.407 38.5325 156.383 39.6264C156.383 39.9476 156.292 40.1957 156.102 40.3849C155.91 40.5768 155.683 40.6657 155.388 40.6657C155.092 40.6657 154.854 40.5768 154.641 40.3937C154.469 40.172 154.38 39.915 154.37 39.6088C154.359 39.2735 154.428 38.9822 154.582 38.7191L154.583 38.7156L154.585 38.7121C154.912 38.1348 155.435 37.6393 156.144 37.2407C156.882 36.8245 157.707 36.5385 158.597 36.3897C159.15 36.2982 159.718 36.2516 160.287 36.2516" fill="#D2AC69"/>
<path d="M100.736 30.3045C101.582 30.3045 102.27 30.5809 102.839 31.1485C103.407 31.7178 103.683 32.4051 103.683 33.2517V36.2032H107.153V36.7197H105.074C104.431 36.7197 103.978 37.0436 103.83 37.6094C103.733 37.9834 103.683 38.3565 103.683 38.7173V53.0737C103.683 53.4327 103.733 53.8111 103.829 54.1983C103.975 54.7809 104.429 55.1144 105.074 55.1144C105.719 55.1144 106.173 54.78 106.318 54.1983C106.415 53.8111 106.464 53.4327 106.464 53.0745V39.5014H107.154V53.0745C107.154 53.8683 106.875 54.5582 106.302 55.1848C105.736 55.748 105.05 56.0217 104.207 56.0217H99.5245V30.3045H100.737" fill="#D2AC69"/>
<path d="M120.034 36.2525C120.395 36.2525 120.766 36.271 121.133 36.3088C122.062 36.4038 122.928 36.6485 123.706 37.0366C124.459 37.4141 125.079 37.9535 125.546 38.6408C126.005 39.3158 126.237 40.1579 126.237 41.1444V56.019H121.554C120.763 56.019 120.076 55.7427 119.452 55.1742C118.884 54.5512 118.607 53.863 118.607 53.0719V47.0862C118.607 46.1974 118.244 45.4784 117.556 45.0067C116.919 44.572 116.215 44.352 115.461 44.352C114.708 44.352 114.011 44.565 113.391 44.9838C112.716 45.4406 112.358 46.1674 112.358 47.087V51.3374C112.358 52.3952 112.74 53.3456 113.494 54.164L113.509 54.1798L113.524 54.1939C114.154 54.773 114.86 55.1329 115.635 55.2684C115.626 55.286 115.616 55.3036 115.607 55.3221C115.51 55.5069 115.376 55.667 115.197 55.8113C115.022 55.9539 114.763 56.0745 114.429 56.1695C114.074 56.2716 113.611 56.3226 113.054 56.3226C112.671 56.3226 112.307 56.2346 111.944 56.0525C111.565 55.8633 111.22 55.6063 110.916 55.2904C110.612 54.9727 110.368 54.6137 110.192 54.223C110.021 53.8446 109.934 53.4565 109.934 53.0719V47.0862C109.934 46.2757 110.152 45.6095 110.6 45.049C111.062 44.4717 111.642 44.0352 112.322 43.7518C113.023 43.4614 113.797 43.3066 114.624 43.2925C114.66 43.2925 114.696 43.2925 114.731 43.2925C115.511 43.2925 116.244 43.4324 116.91 43.7087C117.593 43.993 118.173 44.4233 118.636 44.9882C119.083 45.5338 119.299 46.2194 119.299 47.0862V53.0719C119.299 53.431 119.348 53.8094 119.445 54.1966C119.59 54.7791 120.044 55.1126 120.689 55.1126C121.334 55.1126 121.788 54.7782 121.934 54.1966C122.03 53.8094 122.08 53.431 122.08 53.0728V42.533C122.08 41.477 121.888 40.5337 121.51 39.7302C121.124 38.9118 120.613 38.28 119.987 37.8514C119.355 37.4194 118.647 37.1923 117.882 37.1747C117.858 37.1747 117.832 37.1747 117.807 37.1747C117.059 37.1747 116.325 37.4167 115.625 37.8954L114.895 38.3944L115.684 38.7939C115.728 38.8159 115.768 38.852 115.806 38.9022L115.828 38.9312L115.854 38.9567C116.046 39.1486 116.134 39.3624 116.134 39.6282C116.134 39.9494 116.043 40.1975 115.854 40.3867C115.662 40.5786 115.435 40.6674 115.139 40.6674C114.844 40.6674 114.605 40.5786 114.392 40.3955C114.221 40.1738 114.132 39.9168 114.122 39.6114C114.11 39.2753 114.179 38.9849 114.333 38.7218L114.335 38.7182L114.337 38.7147C114.662 38.1374 115.187 37.642 115.895 37.2434C116.633 36.8271 117.459 36.5411 118.349 36.3924C118.901 36.3009 119.47 36.2542 120.038 36.2542" fill="#D2AC69"/>
<path d="M130.662 30.3045C131.508 30.3045 132.196 30.5809 132.765 31.1485C133.333 31.7178 133.61 32.4051 133.61 33.2517V53.0728C133.61 53.4318 133.659 53.8102 133.756 54.1974C133.901 54.78 134.355 55.1135 135 55.1135C135.645 55.1135 136.099 54.7791 136.244 54.1974C136.341 53.8111 136.39 53.4327 136.39 53.0728V44.3986C136.39 42.8489 136.591 41.5237 136.987 40.4606C137.379 39.4046 137.883 38.544 138.483 37.9033C139.076 37.2715 139.755 36.8042 140.502 36.5156C141.262 36.2225 142.009 36.0738 142.721 36.0738C144.266 36.0738 145.334 36.3818 145.893 36.989C146.446 37.5909 146.645 38.2826 146.5 39.1037C146.345 39.9819 145.842 40.8857 145.005 41.7885C144.156 42.7037 143.023 43.4165 141.636 43.9058L140.01 44.4796C140.162 44.4197 140.311 44.3537 140.457 44.2825C141.304 43.8662 142.033 43.3409 142.623 42.7205C143.212 42.0992 143.67 41.4128 143.982 40.678C144.301 39.9282 144.446 39.2374 144.413 38.6232C144.376 37.9377 144.1 37.3806 143.592 36.967C143.212 36.6573 142.697 36.4997 142.065 36.4997C141.855 36.4997 141.629 36.5173 141.391 36.5508C140.88 36.6194 140.356 36.8297 139.831 37.1738C139.309 37.5161 138.835 38.0125 138.421 38.6487C138.016 39.2726 137.687 40.0681 137.443 41.015C137.202 41.9487 137.079 43.0865 137.079 44.3986V44.9213H144.542C145.384 44.9213 146.069 45.195 146.637 45.7582C147.211 46.3848 147.489 47.0756 147.489 47.8685V56.0199H145.065V49.6029C145.065 48.5469 144.683 47.5965 143.929 46.7773L143.921 46.7693L143.913 46.7614C143.15 45.9976 142.193 45.6113 141.072 45.6113H137.079V53.3905C137 54.0505 136.721 54.6374 136.226 55.1848C135.659 55.7471 134.974 56.0208 134.131 56.0208H129.449V30.3045H130.662" fill="#D2AC69"/>
<path d="M25.762 45.1687C25.762 45.1687 23.2205 49.4182 24.3461 49.1973C24.4314 49.1806 24.5036 49.1287 24.5617 49.0644C24.9973 48.5857 25.454 49.4736 24.2334 49.9875C23.7565 50.1882 21.0329 49.9312 25.762 45.1687Z" fill="#D2AC69"/>
<path d="M23.9334 50.1864C23.6218 50.1864 23.2355 50.0773 23.0234 49.7631C22.4761 48.9527 23.3614 47.3713 25.6546 45.0622L26.5258 44.1848L25.8914 45.2461C24.9339 46.8468 24.0266 48.7547 24.2308 49.0442C24.2431 49.0627 24.3047 49.0512 24.317 49.0486C24.3716 49.038 24.42 48.9958 24.4499 48.9623C24.5969 48.8004 24.7773 48.7388 24.933 48.7978C25.0756 48.8515 25.1662 48.994 25.1698 49.1691C25.1724 49.3055 25.117 49.7781 24.2915 50.1266C24.2035 50.1635 24.0759 50.1864 23.9325 50.1864H23.9334ZM25.029 46.1578C22.9425 48.4669 23.0894 49.3214 23.2734 49.5942C23.4916 49.918 24.0284 49.9092 24.1745 49.8485C24.6919 49.6303 24.8714 49.3495 24.8679 49.1753C24.867 49.1199 24.8468 49.0873 24.8266 49.0803C24.7993 49.0706 24.7394 49.0926 24.6726 49.1656C24.5837 49.2633 24.4834 49.324 24.3742 49.3451C24.1437 49.39 24.0302 49.2853 23.9826 49.2175C23.8462 49.0231 23.7987 48.5813 24.6532 46.8759C24.7782 46.6268 24.9066 46.3822 25.0281 46.1578H25.029Z" fill="#D2AC69"/>
<path d="M41.2755 59.1818C41.2755 59.1818 42.6158 54.8882 41.5475 54.2722C40.8232 53.746 41.8722 52.7076 42.6959 53.3729C43.5187 54.0382 44.1039 55.3018 41.2764 59.1818H41.2755Z" fill="#D2AC69"/>
<path d="M40.6094 60.5053L41.045 59.1096C41.5774 57.4033 42.0482 54.8389 41.426 54.4808L41.4049 54.4667C41.1576 54.2872 41.0344 54.0276 41.0679 53.7548C41.1075 53.4336 41.3556 53.1361 41.7015 52.9962C42.0878 52.8396 42.5058 52.9082 42.8472 53.1845C44.1954 54.2749 43.7712 56.1678 41.4709 59.3234L40.6103 60.5044L40.6094 60.5053ZM41.6803 54.0707C42.4767 54.5521 42.2031 56.4784 41.8792 57.8732C43.9173 54.6718 42.9713 53.907 42.5427 53.5603C42.2682 53.3386 42.0112 53.3922 41.8819 53.4442C41.7023 53.5172 41.5642 53.6686 41.5466 53.8138C41.5351 53.9106 41.5783 53.9941 41.6795 54.0707H41.6803Z" fill="#D2AC69"/>
<path d="M32.8935 35.457C32.8935 35.457 36.6062 37.4106 37.4167 36.4804C38.0723 35.8714 38.8898 37.1008 38.0785 37.7802C37.2671 38.4595 36.1565 38.9796 32.8935 35.457Z" fill="#D2AC69"/>
<path d="M36.9345 38.5132C36.0518 38.5132 34.7829 37.8523 32.7157 35.6206L31.7592 34.5875L33.0053 35.2431C34.4766 36.0175 36.762 36.8632 37.2345 36.3211L37.2521 36.3026C37.4765 36.095 37.7546 36.0246 38.016 36.1099C38.3231 36.2102 38.5677 36.5112 38.6381 36.8773C38.7173 37.2865 38.5695 37.6834 38.2333 37.965C37.884 38.258 37.4836 38.5132 36.9353 38.5132H36.9345ZM34.0076 36.2525C36.5745 38.7244 37.3753 38.0538 37.9236 37.5945C38.1946 37.3674 38.1911 37.1052 38.1647 36.9688C38.1277 36.7787 38.0054 36.6142 37.8664 36.5693C37.774 36.5394 37.6833 36.5658 37.5892 36.6502C36.9679 37.3358 35.2405 36.7796 34.0076 36.2534V36.2525Z" fill="#D2AC69"/>
<path d="M53.2787 66.198C53.2787 66.198 52.4691 73.0154 45.423 68.4191C42.1907 66.0194 40.7211 65.5477 39.4821 66.3986C39.4821 66.3986 40.8038 64.2594 45.9026 67.0613C48.7221 68.6101 50.9819 69.351 53.2778 66.198H53.2787Z" fill="#D2AC69"/>
<path d="M49.6505 70.253C48.4159 70.253 46.9568 69.7074 45.291 68.6206L45.2787 68.6118C42.1907 66.3194 40.7625 65.8108 39.6185 66.5966L38.6743 67.2452L39.2771 66.2702C39.336 66.1751 40.7801 63.969 46.0196 66.8474C48.6447 68.2898 50.8315 69.1469 53.0843 66.0537L53.6281 65.3074L53.519 66.2244C53.5058 66.337 53.1687 68.9894 51.1535 69.9318C50.6977 70.1448 50.1961 70.2513 49.6514 70.2513L49.6505 70.253ZM45.5611 68.2202C47.8095 69.6854 49.6215 70.1149 50.9467 69.4971C51.9851 69.0131 52.5237 67.9615 52.793 67.1686C51.8716 68.1498 50.9001 68.6198 49.7904 68.6338C48.5531 68.6462 47.2956 68.1014 45.7873 67.2725C43.8099 66.1857 42.4283 65.8654 41.4859 65.8654C41.4762 65.8654 41.4656 65.8654 41.4559 65.8654C42.4732 66.1241 43.7589 66.8826 45.562 68.2202H45.5611Z" fill="#D2AC69"/>
<path d="M21.1288 72.3413C18.0136 72.3413 15.613 71.742 13.9612 70.547C12.2426 69.3035 10.6621 67.4643 10.6621 65.0822C10.6621 62.7 12.2135 61.0069 13.875 59.9342C16.3258 58.351 20.2118 58.4373 25.1478 59.6429C29.7546 60.7675 30.991 63.6944 30.991 63.6944L30.1374 63.2491C26.4308 61.5789 18.9314 59.0172 14.945 61.5938C13.8688 62.2899 12.6359 63.4304 12.6359 65.083C12.6359 66.8202 13.911 68.1023 15.1166 68.9471C19.9135 72.3096 28.644 69.7039 30.3714 69.2481L31.9334 68.8125C31.9334 68.8125 30.323 71.2756 26.2161 71.9101C24.3514 72.1987 22.653 72.3422 21.127 72.3422L21.1288 72.3413Z" fill="#D2AC69"/>
<path d="M21.1288 72.8244C17.915 72.8244 15.4079 72.1899 13.6787 70.9386C12.0824 69.784 10.1798 67.8304 10.1798 65.0822C10.1798 62.1799 12.3314 60.3566 13.6136 59.5285C16.0318 57.9665 19.8422 57.8503 25.263 59.1739C30.0502 60.3425 31.3817 63.3776 31.4362 63.5061L31.959 64.7443L29.927 63.683C24.9876 61.4592 18.531 59.8515 15.2082 61.9987C13.823 62.8936 13.1199 63.9311 13.1199 65.0822C13.1199 66.3256 13.8855 67.4934 15.3956 68.5511C18.3014 70.5883 23.1968 70.6931 29.9473 68.8618C30.0643 68.8301 30.1655 68.8028 30.25 68.7808L33.0422 68.0011L32.34 69.0756C32.2696 69.1839 30.5624 71.7262 26.2926 72.3862C24.413 72.6766 22.6758 72.8235 21.1297 72.8235L21.1288 72.8244ZM18.7845 59.2223C16.83 59.2223 15.2909 59.5945 14.1372 60.3399C13.0196 61.0615 11.1452 62.6375 11.1452 65.0822C11.1452 67.5268 12.8304 69.1328 14.2446 70.1563C15.8066 71.2862 18.1227 71.8591 21.1288 71.8591C22.6257 71.8591 24.3135 71.7156 26.1439 71.4323C28.0711 71.1348 29.4158 70.4176 30.279 69.7726C30.2535 69.7796 30.2271 69.7867 30.1998 69.7937C29.0708 70.0999 26.4264 70.8171 23.496 71.0486C19.7868 71.3416 16.8749 70.767 14.8412 69.3414C13.0583 68.0918 12.1546 66.6583 12.1546 65.0813C12.1546 63.6029 13.0293 62.2565 14.6837 61.1873C18.8417 58.4998 26.2337 61.0755 29.4633 62.429C28.6352 61.6123 27.2501 60.6523 25.0334 60.1111C22.6046 59.5179 20.5286 59.2214 18.7836 59.2214L18.7845 59.2223Z" fill="#D2AC69"/>
<path d="M50.461 74.426C48.3674 74.426 46.2062 73.8927 44.4814 73.3163C41.3178 72.2586 37.9861 70.4986 35.7852 68.7227C33.8175 67.1352 31.5955 66.7269 29.179 67.5101L27.214 68.2378C27.214 68.2378 28.4557 66.2913 30.7393 65.7131C32.0135 65.3902 34.5409 65.1807 37.0251 67.1862C40.993 70.3894 49.3266 73.8144 53.3526 71.8898C55.0211 71.0926 56.8198 69.4408 56.8198 66.8422C56.8198 64.5814 55.2094 63.0714 53.9818 62.3542C51.0154 60.6223 42.467 63.7815 42.467 63.7815C42.467 63.7815 43.1429 61.695 44.2834 58.7418C45.4318 55.7656 46.0152 53.6967 45.3411 52.4119C44.7128 51.2134 43.0206 50.6581 40.3093 50.7575C40.2811 50.7742 40.2503 50.7927 40.2169 50.813C39.461 61.2278 35.3496 62.2098 34.8533 62.1465C34.5708 62.1104 34.0463 61.8191 33.8466 61.6176C31.3852 59.1298 32.7721 55.2895 35.3505 52.3257C36.351 51.1764 38.3134 49.5484 38.317 49.4701C36.8394 49.6813 32.6691 51.1614 23.9844 59.9553L22.015 59.1193C34.3156 46.6655 38.4032 47.7541 39.1838 47.9398C39.9643 48.1254 40.319 48.7106 40.3172 48.781C43.8082 48.6675 46.0882 49.5818 47.0914 51.4958C48.1008 53.4222 47.6978 56.195 45.8946 59.7362C45.6139 60.287 45.3226 60.8124 45.0366 61.2973C45.5013 61.1116 46.0002 60.9277 46.5203 60.7543C50.1688 59.539 53.0138 59.5038 54.9762 60.6478C56.855 61.7434 58.7954 63.8282 58.7954 66.8422C58.7954 71.0635 55.8483 72.886 54.2054 73.6718C53.0675 74.2157 51.7783 74.426 50.461 74.4269V74.426ZM38.4102 51.9702C37.7406 52.2667 37.1457 53.0024 36.7356 53.4767C34.9853 55.506 33.2834 59.0084 35.0874 60.3671C35.5511 60.4058 37.8127 56.8682 38.4102 51.9693V51.9702Z" fill="#D2AC69"/>
<path d="M50.461 74.9091C48.6438 74.9091 46.5802 74.5272 44.3282 73.7748C41.1145 72.7003 37.7247 70.9086 35.4825 69.0985C33.653 67.6218 31.585 67.2408 29.3374 67.9668L26.0348 69.19L26.8074 67.9782C26.862 67.892 28.1802 65.8627 30.6214 65.245C31.7126 64.9686 34.5514 64.5682 37.3287 66.8105C39.3413 68.435 42.4028 70.041 45.3191 71.0019C48.6666 72.1054 51.4466 72.2665 53.145 71.4542C54.105 70.9958 56.3376 69.6274 56.3376 66.8422C56.3376 64.4723 54.3488 63.1268 53.739 62.7713C51.4686 61.446 44.9539 63.3785 42.6351 64.2347L41.7023 64.5797L42.0086 63.6337C42.0156 63.6126 42.702 61.5006 43.8337 58.5684C44.931 55.726 45.4942 53.7425 44.9143 52.6363C44.2922 51.4501 42.3306 51.2046 40.6692 51.231C40.1333 57.7535 38.2747 60.5651 36.7954 61.7751C35.9911 62.4325 35.1938 62.6771 34.7926 62.6261C34.3878 62.5742 33.7674 62.2239 33.5034 61.9573C32.2476 60.6874 31.8094 58.9899 32.237 57.0469C32.5943 55.4259 33.5702 53.6369 34.9862 52.0098C35.3637 51.5768 35.8618 51.0875 36.3475 50.6326C34.1414 51.6727 30.345 54.2018 24.3267 60.295L24.0962 60.5282L21.1702 59.2865L21.67 58.7805C29.7845 50.5648 35.8732 46.6514 39.2779 47.4663L39.2946 47.4698C39.8957 47.6133 40.3515 47.9591 40.5962 48.2909C44.1223 48.231 46.4517 49.2351 47.5182 51.2714C48.6042 53.3447 48.2029 56.2663 46.3241 59.9553C46.251 60.0978 46.1762 60.2422 46.0997 60.3865C46.1894 60.3557 46.2783 60.3249 46.3672 60.2958C50.153 59.0348 53.1309 59.0128 55.2182 60.2298C56.4388 60.9418 59.2768 63.0106 59.2768 66.8413C59.2768 68.8037 58.6722 70.4924 57.479 71.8617C56.6966 72.7593 55.6934 73.4941 54.4113 74.1066C53.2981 74.6381 51.9684 74.9082 50.4592 74.9082L50.461 74.9091ZM31.511 66.638C33.1461 66.638 34.679 67.2091 36.0888 68.347C38.2474 70.0894 41.5219 71.8186 44.6345 72.8587C46.7878 73.5786 48.7485 73.9438 50.461 73.9438C51.825 73.9438 53.0147 73.7053 53.9968 73.2362C56.8603 71.8678 58.3123 69.7162 58.3123 66.8422C58.3123 63.5122 55.8087 61.6924 54.7325 61.065C52.8951 59.994 50.1838 60.0433 46.6726 61.2128C46.1965 61.3712 45.7063 61.5507 45.2153 61.747L43.905 62.2688L44.6204 61.0535C44.9249 60.5361 45.2091 60.0195 45.4643 59.5179C47.1926 56.1238 47.5957 53.5005 46.6638 51.7202C45.7538 49.9831 43.6242 49.1577 40.333 49.2642L39.8218 49.2809L39.8323 48.884C39.7566 48.7766 39.5314 48.5188 39.0729 48.4097L39.0553 48.4053C38.6892 48.3182 37.576 48.0515 35.0724 49.2527C31.8639 50.7918 27.7578 54.054 22.8615 58.9538L23.8726 59.3833C32.2617 50.9362 36.4769 49.2457 38.2501 48.9931L38.8256 48.9113L38.8001 49.4921C38.7904 49.7226 38.7614 49.7482 38.0283 50.4073C37.3974 50.9749 36.3422 51.9244 35.7157 52.6442C34.4036 54.1517 33.5034 55.7894 33.1813 57.2554C32.8222 58.8861 33.1619 60.2395 34.1906 61.2797C34.327 61.417 34.7424 61.6414 34.9078 61.6686C35.1278 61.6686 36.1073 61.3958 37.1272 60.0222C38.1075 58.7022 39.3554 56.0278 39.7364 50.7795L39.754 50.5314L40.1685 50.2806L40.2926 50.2762C43.2054 50.1697 45.0481 50.813 45.7697 52.1893C46.5221 53.6246 45.9598 55.7427 44.7348 58.9178C44.059 60.6681 43.5442 62.1218 43.2397 63.0062C45.591 62.2283 51.6754 60.4516 54.2265 61.9397C54.9481 62.3612 57.3038 63.9602 57.3038 66.8448C57.3038 69.1583 55.9046 71.2087 53.5621 72.3281C51.6375 73.2477 48.6033 73.1034 45.0173 71.9215C41.998 70.9262 38.8203 69.2569 36.7233 67.5646C34.3728 65.6674 32.0399 65.8847 30.859 66.1839C30.1514 66.3634 29.5495 66.6899 29.0638 67.0428C29.9024 66.7744 30.719 66.6406 31.511 66.6406V66.638ZM35.0979 60.8511C35.0812 60.8511 35.0645 60.8511 35.0469 60.8494L34.9078 60.8379L34.7961 60.7534C34.2496 60.3416 33.9319 59.7573 33.8527 59.0172C33.6591 57.2114 34.9774 54.7747 36.3695 53.1617L36.4672 53.0473C36.9019 52.5404 37.4959 51.8461 38.214 51.5284L38.991 51.1843L38.8881 52.0282C38.537 54.9102 37.6385 57.1472 37.1342 58.2243C36.7981 58.9424 36.4434 59.5707 36.1099 60.0398C35.7042 60.61 35.4059 60.8502 35.0962 60.8502L35.0979 60.8511ZM37.7582 53.057C37.554 53.2646 37.3648 53.4855 37.202 53.6756L37.1017 53.7926C35.8864 55.2006 34.6526 57.4042 34.8137 58.9151C34.8498 59.2504 34.9536 59.525 35.1305 59.7441C35.7227 59.0515 37.1246 56.5682 37.7582 53.0578V53.057Z" fill="#D2AC69"/>
<path d="M20.5982 56.3895C19.5932 56.3895 18.8311 55.8633 18.4897 54.9234C17.6651 52.6513 19.5721 47.7514 21.3171 44.0414C23.0402 40.377 25.4927 36.0976 26.6147 35.2801C27.3918 34.7134 28.0491 34.9677 28.2955 35.1032C29.1614 35.5793 29.546 36.8562 29.6252 39.5111C29.6701 41.03 29.5882 42.4547 29.575 42.6721C29.568 43.4544 29.8012 45.1572 30.5826 45.5426C31.1573 45.826 32.2194 45.4353 33.5306 44.4682C33.3441 44.3714 33.0634 44.2499 32.6436 44.1135C31.5075 43.7448 31.3034 43.1059 31.3324 42.6351C31.3896 41.7032 32.3365 41.2122 34.8568 40.4316C37.2909 39.6774 39.0007 39.9282 39.7003 40.487C40.0576 39.5226 40.326 38.463 40.326 37.4563C40.326 36.535 40.7466 35.8002 41.4797 35.4402C42.4767 34.951 43.8337 35.2466 45.1106 36.2322C47.3871 37.9905 48.8761 44.3722 45.5726 47.4118L45.7371 46.457C46.2607 42.2453 45.1106 38.5088 43.5503 37.5496C42.8534 37.121 42.3078 37.0559 42.3016 37.4554C42.2646 39.8922 41.1057 42.4266 40.2855 43.8777C40.099 44.2781 39.5164 44.807 38.9066 44.6714C39.571 41.7446 38.2835 40.4958 34.3165 42.6527C35.0284 43.0012 35.6673 43.5054 35.7711 44.264C35.8653 44.9478 35.4693 45.4925 35.0856 45.7662C32.875 47.5059 31.1142 48.011 29.7035 47.3114C27.5942 46.2642 27.5942 42.9862 27.6012 42.6166L27.603 42.5718C27.7394 40.458 27.654 38.2774 27.4243 37.2618C26.5742 38.3434 24.7641 41.3503 23.0886 44.9178C20.5313 50.3642 19.8475 53.0209 20.2532 53.8956C20.2532 53.8956 20.4987 54.3998 21.2995 54.3312C24.3927 54.0672 25.9494 50.2471 25.9494 50.2471L26.6834 48.3727C26.6834 48.3727 26.8004 51.099 25.9811 52.5782C25.219 53.9537 23.8207 56.1845 20.7962 56.3842C20.7293 56.3886 20.6633 56.3904 20.599 56.3904L20.5982 56.3895Z" fill="#D2AC69"/>
<path d="M20.5982 56.8119C19.4084 56.8119 18.495 56.1766 18.0928 55.0678C17.3906 53.1335 18.3471 49.3636 20.9343 43.8618C22.6565 40.201 25.1442 35.8292 26.3648 34.9386C27.3636 34.2091 28.2498 34.5963 28.4979 34.7327C29.5275 35.2986 29.9614 36.6344 30.0467 39.4988C30.0916 41.0018 30.0142 42.3931 29.9966 42.687C29.9904 43.5635 30.2799 44.9231 30.7683 45.1642C31.0235 45.2901 31.6527 45.1854 32.6471 44.5606C32.6031 44.5456 32.5582 44.5306 32.5116 44.5157C31.0446 44.0396 30.8774 43.1174 30.9091 42.6096C30.9839 41.3899 32.1482 40.8276 34.7301 40.0286C36.9512 39.3404 38.5484 39.461 39.468 39.8658C39.7566 38.9796 39.9018 38.1718 39.9018 37.4563C39.9018 36.3678 40.4078 35.4948 41.2914 35.061C42.4362 34.4986 43.9595 34.8119 45.3666 35.8978C46.7535 36.9688 47.7972 39.4786 47.9063 42.0015C48.0093 44.3802 47.2806 46.4121 45.8559 47.7224L44.9434 48.5619L45.3156 46.3945C45.8313 42.225 44.6855 38.7446 43.3259 37.9095C43.0434 37.7362 42.8393 37.6587 42.717 37.6288C42.6281 40.2098 41.3987 42.7583 40.6578 44.0722C40.4052 44.5958 39.6537 45.2698 38.8124 45.0833L38.3979 44.9918L38.4921 44.5773C38.7666 43.3682 38.6751 42.519 38.2351 42.1863C37.928 41.954 37.1342 41.7402 35.1842 42.6791C35.7702 43.1068 36.1064 43.6181 36.1874 44.2059C36.3053 45.0683 35.8274 45.7494 35.3373 46.1032C32.9886 47.9494 31.0834 48.4678 29.5134 47.689C27.1709 46.5265 27.1691 43.0056 27.177 42.6078L27.1797 42.5436C27.2747 41.067 27.2615 39.4918 27.1568 38.3636C26.1958 39.813 24.7711 42.3254 23.4696 45.0965C20.4019 51.6287 20.4521 53.2884 20.629 53.7029C20.6589 53.7478 20.8155 53.9484 21.2626 53.9088C24.0574 53.6703 25.5429 50.1213 25.5578 50.0852L27.0186 46.3549L27.1049 48.3525C27.1102 48.4686 27.2175 51.216 26.3507 52.7806C25.7215 53.9167 24.2475 56.5778 20.8234 56.8031C20.7469 56.8084 20.6712 56.811 20.5982 56.811V56.8119ZM27.61 35.3487C27.3997 35.3487 27.1454 35.4147 26.8638 35.6206C25.9239 36.3062 23.6078 40.1641 21.6999 44.2209C19.2817 49.3627 18.2829 53.1124 18.8874 54.7791C19.1655 55.5447 19.7727 55.9662 20.599 55.9662C20.6536 55.9662 20.7108 55.9645 20.7689 55.961C23.3798 55.7885 24.6822 54.0496 25.6124 52.3714C25.8315 51.9763 25.9776 51.4756 26.0753 50.9634C25.4866 52.0942 23.9281 54.5292 21.3356 54.7501C20.4767 54.8231 20.0121 54.3629 19.8739 54.0786C19.5404 53.3597 19.4753 51.6182 22.7066 44.7366C24.3434 41.2518 26.1879 38.1489 27.0926 36.9987L27.6408 36.3018L27.8362 37.1668C28.0826 38.2571 28.16 40.4879 28.0245 42.5929L28.0227 42.6281C28.0166 42.9924 28.0218 46.0046 29.8901 46.9322C31.1397 47.5526 32.7536 47.0624 34.8234 45.4335L34.8392 45.4212C34.9404 45.349 35.4385 44.9583 35.3514 44.3203C35.2827 43.8214 34.8832 43.3998 34.129 43.0311L33.3942 42.6712L34.1132 42.2805C36.2947 41.0942 37.8532 40.8364 38.7464 41.5122C39.3932 42.0015 39.622 42.8974 39.4284 44.1778C39.6484 44.0581 39.8314 43.8469 39.901 43.6982L39.9159 43.6682C40.4932 42.6474 41.8387 39.9986 41.8774 37.4475C41.881 37.1888 42.005 36.9732 42.2162 36.857C42.6589 36.6142 43.3048 36.9028 43.7694 37.1879C45.5294 38.2686 46.5634 42.0394 46.2158 45.9342C46.8318 44.8765 47.1284 43.538 47.0633 42.0367C46.9656 39.7813 46.0354 37.4801 44.851 36.5649C43.7052 35.6796 42.5137 35.4006 41.6645 35.8178C41.0731 36.1082 40.7475 36.6898 40.7475 37.4546C40.7475 38.3962 40.5284 39.4654 40.0954 40.6322L39.8922 41.1796L39.4354 40.8153C38.8238 40.3269 37.2082 40.143 34.98 40.8329C32.5459 41.587 31.7918 42.013 31.7522 42.6589C31.7231 43.127 32.0663 43.4808 32.7721 43.7096C33.1558 43.8337 33.4761 43.9622 33.7234 44.0906L34.0243 44.2473L33.6494 43.8495L33.6732 43.8275L33.7797 43.9516L34.0921 44.2825L34.3253 44.403L33.7797 44.8061C32.7483 45.5673 31.3236 46.3778 30.3934 45.9193C29.1403 45.3006 29.1509 42.6923 29.1509 42.6659V42.6439C29.1614 42.4846 29.2468 41.0397 29.2019 39.5217C29.1289 37.0709 28.7971 35.8591 28.0914 35.471C27.9831 35.4112 27.8168 35.347 27.6091 35.347L27.61 35.3487Z" fill="#D2AC69"/>
<path d="M30.4691 34.474C30.0863 34.474 29.6859 34.3922 29.2935 34.1862C27.4323 33.205 25.359 29.8012 27.1507 24.332C27.273 23.9589 27.9823 23.0639 28.7523 23.0639C28.7567 23.0639 28.7611 23.0639 28.7655 23.0639C29.3938 23.0683 30.0371 23.3904 30.7182 24.0442L30.2606 22.4505L30.2509 22.3907C30.2113 22.1382 29.3181 16.1691 32.9903 13.7605C34.8023 12.5717 36.2719 13.0609 37.0427 13.9145C37.9166 14.8825 38.1982 16.6267 37.576 18.4782C38.4745 18.3348 39.4372 18.4113 40.1799 19.0449C41.3451 20.0385 41.5202 21.9375 40.6956 24.9277C41.0115 24.8688 41.3961 24.816 41.6663 25.0589C43.2256 26.4607 41.6416 31.9704 40.6683 32.8046C39.5191 33.7902 37.877 33.4329 37.4713 31.5005L37.8488 31.8278C38.17 32.0848 39.0843 33.0273 39.864 31.7293C40.6842 30.3635 40.8716 27.6945 40.5715 27.1762C40.2424 27.4437 40.0119 27.7086 39.5675 27.9814C39.1811 28.219 38.1762 28.4451 37.6869 28.2005C38.3311 27.9074 38.5792 27.2457 38.6399 27.0151C40.1245 21.3594 39.0914 20.7126 38.8978 20.5471C38.3927 20.1168 36.8271 20.6333 35.9375 21.1561C35.9375 21.1561 33.4136 23.371 33.0176 24.42C32.5899 25.5534 33.2323 28.5674 33.4039 29.6234C33.4409 29.8514 33.2297 29.9517 33.2297 29.9517C33.2297 29.9517 32.9367 30.0423 32.8047 29.8355C29.6358 24.9022 29.1219 24.6682 28.8825 25.2314C27.4754 30.1294 29.8347 32.3206 30.0485 32.5151C31.6316 33.9557 32.3541 32.3347 32.3541 32.3347L32.5283 31.8481C32.9692 33.587 31.3087 34.474 30.4674 34.474H30.4691ZM32.1966 22.0317L32.3444 22.5465L34.6738 19.6821C36.1742 17.8376 36.161 15.8831 35.5784 15.2381C35.1983 14.8166 34.5506 15.0999 34.0754 15.4123C31.6413 17.0086 32.1288 21.501 32.1966 22.0325V22.0317Z" fill="#D2AC69"/>
<path d="M30.4691 34.7758C30.0027 34.7758 29.5592 34.6676 29.1527 34.4529C28.0236 33.858 27.0565 32.5794 26.5646 31.0332C25.9433 29.0805 26.0471 26.7309 26.8638 24.2378C27.0283 23.7371 27.8432 22.7621 28.7514 22.7621H28.7611C29.2301 22.7656 29.6947 22.9152 30.1664 23.217L29.9623 22.4972L29.9526 22.4374C29.9112 22.1769 28.9907 16.023 32.8249 13.508C34.797 12.2153 36.4127 12.7653 37.2671 13.7122C38.1744 14.7171 38.4455 16.4129 37.9967 18.1262C38.9611 18.0585 39.7602 18.2899 40.3771 18.8153C41.58 19.8414 41.8185 21.7281 41.1013 24.5758C41.353 24.5722 41.6355 24.6242 41.8695 24.8345C42.3852 25.2982 42.6387 26.1307 42.6246 27.3082C42.5982 29.5029 41.6117 32.3937 40.8663 33.0334C40.2195 33.5878 39.4099 33.7744 38.6998 33.5333C37.9298 33.2719 37.3886 32.5714 37.1774 31.5621L36.9935 30.6856L38.0442 31.5955C38.0706 31.6166 38.1005 31.6413 38.1331 31.6694C38.3434 31.8472 38.6945 32.1438 39.0201 32.0901C39.2243 32.0566 39.4214 31.8824 39.6071 31.5735C40.2407 30.5184 40.4615 28.6026 40.3955 27.7306C40.2107 27.8951 40.0092 28.0641 39.7267 28.2383C39.2559 28.5278 38.148 28.7672 37.5531 28.4698L36.9873 28.1873L37.5628 27.925C38.1445 27.6602 38.3302 27.0116 38.3487 26.9377C39.6062 22.1487 39.0315 21.047 38.7253 20.7953L38.7024 20.7759C38.3971 20.5154 37.0982 20.8314 36.1152 21.4007C35.4121 22.0202 33.6002 23.731 33.301 24.5247C32.9631 25.4206 33.3969 27.8494 33.6055 29.0162C33.6442 29.2336 33.6785 29.4228 33.7023 29.5733C33.7524 29.8839 33.5606 30.1277 33.3599 30.2227L33.3195 30.2386C33.1294 30.2975 32.7536 30.3125 32.5512 29.9974C30.7085 27.1286 29.5707 25.564 29.165 25.3405C27.8819 29.8443 29.8443 31.9194 30.2518 32.2898C30.6927 32.6911 31.0834 32.861 31.4116 32.7941C31.8155 32.7114 32.0426 32.2828 32.0751 32.2168L32.5767 30.8132L32.8205 31.7724C33.0071 32.5072 32.8751 33.1918 32.4403 33.7515C31.9185 34.423 31.0526 34.7741 30.4674 34.7741L30.4691 34.7758ZM28.7523 23.0639V23.3658C28.1706 23.3658 27.5379 24.1199 27.4375 24.4262C25.7075 29.707 27.6839 32.9965 29.4343 33.9196C29.7528 34.0877 30.1013 34.173 30.4691 34.173C30.8968 34.173 31.5665 33.8967 31.966 33.3837C32.0417 33.2869 32.1042 33.1848 32.1543 33.0792C31.9933 33.2147 31.79 33.3344 31.541 33.3863C31.0112 33.4972 30.4419 33.2798 29.847 32.7386C29.3929 32.325 27.1964 30.015 28.5947 25.1486L28.6071 25.1143C28.7118 24.8688 28.8693 24.735 29.0752 24.7174C29.5205 24.6796 30.067 25.0131 33.0563 29.6674C33.0687 29.671 33.0889 29.671 33.11 29.6692C33.0836 29.5249 33.0502 29.3392 33.0115 29.1245C32.6867 27.3055 32.3699 25.2842 32.736 24.3135C33.1461 23.2258 35.4746 21.1614 35.7386 20.9299L35.7597 20.9114L35.7843 20.8974C36.5543 20.445 38.3777 19.7085 39.0931 20.3192L39.1081 20.3315C39.4337 20.599 40.4228 21.413 38.9312 27.0934C38.9022 27.2043 38.7763 27.6206 38.4507 27.9946C38.8133 27.9602 39.2084 27.8485 39.4091 27.7253C39.688 27.5537 39.8763 27.3856 40.0743 27.2078C40.1703 27.1216 40.2697 27.0327 40.3806 26.943L40.6551 26.7203L40.832 27.0266C41.2087 27.6778 40.9649 30.4814 40.1219 31.8868C39.8411 32.355 39.5023 32.6242 39.116 32.6885C38.7843 32.743 38.4824 32.6383 38.2325 32.4949C38.4147 32.7184 38.6364 32.8786 38.8925 32.9657C39.3985 33.1373 39.989 32.993 40.4721 32.5785C41.0371 32.0936 41.9945 29.429 42.02 27.3046C42.0315 26.3217 41.8396 25.6238 41.4647 25.2868C41.3169 25.1539 41.0819 25.1654 40.7511 25.2278L40.2759 25.3167L40.4043 24.8512C41.1875 22.0106 41.0503 20.1881 39.9837 19.2782C39.4108 18.7898 38.6162 18.6217 37.6227 18.7801L37.1307 18.8584L37.2891 18.3858C37.8462 16.7288 37.6605 15.0542 36.8175 14.1205C36.1302 13.3593 34.8075 12.9325 33.1549 14.0166C29.6437 16.3196 30.5096 22.1021 30.5483 22.3476L30.5545 22.3898L31.3148 25.0413L30.507 24.2669C29.8831 23.6676 29.3111 23.3746 28.7611 23.371L28.7496 23.0692L28.7523 23.0639ZM32.2124 23.1854L31.8965 22.0704C31.8296 21.5424 31.3139 16.8617 33.9091 15.1598C35.0047 14.4408 35.5652 14.7734 35.8019 15.0357C36.4725 15.7784 36.5341 17.8719 34.907 19.8722L32.2124 23.1854ZM35.0724 15.3278C34.8023 15.3278 34.4582 15.5197 34.2391 15.664C32.0619 17.0914 32.3919 21.0883 32.4826 21.8962L34.4379 19.492C35.8803 17.7179 35.8019 15.9386 35.3531 15.4405C35.281 15.3604 35.1824 15.3287 35.0724 15.3287V15.3278Z" fill="#D2AC69"/>
</svg>
