<svg width="23" height="14" viewBox="0 0 23 14" fill="none" xmlns="http://www.w3.org/2000/svg">
<path d="M12.25 7C12.25 10.5152 9.55844 13.375 6.25 13.375C2.94156 13.375 0.25 10.5152 0.25 7C0.25 3.48483 2.94156 0.625 6.25 0.625C9.55844 0.625 12.25 3.48483 12.25 7ZM16.75 1C16.2173 1 15.2126 1.25882 14.4697 2.99228C14.0056 4.07507 13.75 5.49845 13.75 7C13.75 8.50155 14.0056 9.92493 14.4697 11.0077C15.2126 12.7412 16.2173 13 16.75 13C17.2827 13 18.2874 12.7412 19.0303 11.0077C19.4944 9.92493 19.75 8.50156 19.75 7C19.75 5.49844 19.4944 4.07507 19.0303 2.99228C18.2874 1.25882 17.2827 1 16.75 1ZM22 1C21.8011 1.00001 21.6103 1.07903 21.4697 1.21968C21.329 1.36033 21.25 1.55109 21.25 1.75V12.25C21.25 12.4489 21.329 12.6397 21.4697 12.7803C21.6103 12.921 21.8011 13 22 13C22.1989 13 22.3897 12.921 22.5303 12.7803C22.671 12.6397 22.75 12.4489 22.75 12.25V1.75C22.75 1.55109 22.671 1.36033 22.5303 1.21968C22.3897 1.07903 22.1989 1.00001 22 1Z" fill="white"/>
</svg>
