<svg width="25" height="20" viewBox="0 0 25 20" fill="none" xmlns="http://www.w3.org/2000/svg">
<path d="M24.605 9.00007C24.605 7.34557 23.2595 6.00007 21.605 6.00007C20.9435 6.00007 20.315 6.21607 19.802 6.60757C18.128 5.44507 15.935 4.75207 13.6025 4.57657L14.861 1.62457L18.5225 2.47957C18.6395 3.61207 19.5875 4.50007 20.75 4.50007C21.9905 4.50007 23 3.49057 23 2.25007C23 1.00957 21.9905 6.98844e-05 20.75 6.98844e-05C19.964 6.98844e-05 19.2725 0.40657 18.8705 1.02007L14.591 0.0195699C14.4189 -0.0210637 14.2379 0.00045675 14.0801 0.0803294C13.9222 0.160202 13.7977 0.293286 13.7285 0.45607L11.9885 4.53607C9.47001 4.62307 7.07001 5.33257 5.25801 6.56857C4.80983 6.24579 4.28132 6.05286 3.7306 6.011C3.17988 5.96914 2.62828 6.07997 2.13647 6.3313C1.64466 6.58264 1.23168 6.96474 0.942968 7.43558C0.654253 7.90642 0.500981 8.44776 0.500007 9.00007C0.498856 9.52866 0.638796 10.048 0.905383 10.5044C1.17197 10.9609 1.55554 11.3379 2.01651 11.5966C2.00493 11.7308 1.99942 11.8654 2.00001 12.0001C2.00001 16.1356 6.71001 19.5001 12.5 19.5001C18.2885 19.5001 23 16.1356 23 12.0001C23 11.8831 22.9955 11.7676 22.988 11.6521C23.476 11.4023 23.8854 11.0224 24.1708 10.5543C24.4562 10.0862 24.6065 9.54829 24.605 9.00007ZM20.75 1.50007C20.9493 1.50047 21.1403 1.58002 21.281 1.72124C21.4216 1.86245 21.5004 2.05376 21.5 2.25307C21.4996 2.45238 21.4201 2.64337 21.2788 2.78402C21.1376 2.92467 20.9463 3.00347 20.747 3.00307C20.6483 3.00287 20.5506 2.98324 20.4595 2.94529C20.3684 2.90734 20.2857 2.85182 20.2161 2.7819C20.1464 2.71198 20.0912 2.62902 20.0536 2.53777C20.0161 2.44652 19.9968 2.34876 19.997 2.25007C19.9972 2.15138 20.0168 2.0537 20.0548 1.9626C20.0927 1.8715 20.1483 1.78876 20.2182 1.71912C20.2881 1.64947 20.3711 1.59428 20.4623 1.5567C20.5536 1.51912 20.6513 1.49987 20.75 1.50007ZM7.25001 11.2501C7.25001 10.4236 7.92351 9.75007 8.75001 9.75007C9.57651 9.75007 10.25 10.4236 10.25 11.2501C10.2327 11.6363 10.0671 12.001 9.78773 12.2682C9.50832 12.5353 9.13661 12.6845 8.75001 12.6845C8.3634 12.6845 7.99169 12.5353 7.71228 12.2682C7.43287 12.001 7.26728 11.6363 7.25001 11.2501ZM15.9635 16.2256C14.9561 16.9553 13.7439 17.3482 12.5 17.3482C11.2561 17.3482 10.0439 16.9553 9.03651 16.2256C8.95427 16.1688 8.88419 16.0963 8.83039 16.0121C8.77659 15.9279 8.74015 15.8338 8.72322 15.7353C8.70628 15.6369 8.70919 15.536 8.73177 15.4387C8.75435 15.3414 8.79615 15.2495 8.85471 15.1686C8.91327 15.0876 8.98742 15.0192 9.07279 14.9673C9.15816 14.9154 9.25304 14.8811 9.35186 14.8664C9.45068 14.8517 9.55144 14.8568 9.64823 14.8816C9.74503 14.9064 9.8359 14.9502 9.91551 15.0106C10.6669 15.556 11.5715 15.8497 12.5 15.8497C13.4285 15.8497 14.3331 15.556 15.0845 15.0106C15.1641 14.9502 15.255 14.9064 15.3518 14.8816C15.4486 14.8568 15.5493 14.8517 15.6482 14.8664C15.747 14.8811 15.8419 14.9154 15.9272 14.9673C16.0126 15.0192 16.0867 15.0876 16.1453 15.1686C16.2039 15.2495 16.2457 15.3414 16.2682 15.4387C16.2908 15.536 16.2937 15.6369 16.2768 15.7353C16.2599 15.8338 16.2234 15.9279 16.1696 16.0121C16.1158 16.0963 16.0457 16.1688 15.9635 16.2256ZM16.25 12.7501C15.8522 12.7501 15.4707 12.592 15.1893 12.3107C14.908 12.0294 14.75 11.6479 14.75 11.2501C14.75 10.8522 14.908 10.4707 15.1893 10.1894C15.4707 9.9081 15.8522 9.75007 16.25 9.75007C16.6478 9.75007 17.0294 9.9081 17.3107 10.1894C17.592 10.4707 17.75 10.8522 17.75 11.2501C17.75 11.6479 17.592 12.0294 17.3107 12.3107C17.0294 12.592 16.6478 12.7501 16.25 12.7501Z" fill="white"/>
</svg>
