<svg width="23" height="22" viewBox="0 0 23 22" fill="none" xmlns="http://www.w3.org/2000/svg">
<path d="M21.7647 1.42778C21.4799 1.19091 21.1363 1.03567 20.7704 0.978584C20.4044 0.921494 20.0299 0.964688 19.6865 1.10357L1.76563 8.33892C1.38238 8.4966 1.05615 8.76711 0.830229 9.11454C0.604313 9.46196 0.489397 9.86988 0.500734 10.2841C0.512072 10.6984 0.649127 11.0994 0.893707 11.434C1.13829 11.7685 1.47883 12.0208 1.87013 12.1573L5.49513 13.418L7.51563 20.0997C7.54309 20.1889 7.58293 20.2739 7.63401 20.352C7.64176 20.364 7.65269 20.373 7.66093 20.3846C7.71993 20.467 7.79124 20.5397 7.87236 20.6004C7.89543 20.618 7.91752 20.6345 7.94218 20.6501C8.03711 20.7131 8.14225 20.7591 8.25291 20.7862L8.26475 20.7872L8.27146 20.7901C8.33799 20.8036 8.40571 20.8105 8.47361 20.8106C8.48014 20.8106 8.48594 20.8074 8.49241 20.8073C8.59487 20.8055 8.69644 20.7879 8.7935 20.755C8.81608 20.7473 8.83543 20.7345 8.85734 20.7252C8.92972 20.6952 8.99829 20.6567 9.06163 20.6106C9.11235 20.5679 9.16309 20.5251 9.21385 20.4824L11.916 17.4991L15.9463 20.6211C16.3011 20.8974 16.7378 21.0475 17.1875 21.0479C17.6587 21.0473 18.1153 20.8847 18.4809 20.5874C18.8464 20.2901 19.0987 19.8762 19.1953 19.4151L22.458 3.39849C22.5319 3.03801 22.5065 2.66421 22.3844 2.31708C22.2622 1.96995 22.048 1.66255 21.7647 1.42778ZM8.87013 13.7364C8.73147 13.8745 8.63669 14.0505 8.59767 14.2422L8.28816 15.7462L7.5041 13.1532L11.5693 11.0362L8.87013 13.7364ZM17.1719 19.0401L12.4092 15.3506C12.2099 15.1966 11.96 15.1234 11.7091 15.1455C11.4583 15.1675 11.225 15.2833 11.0557 15.4697L10.1903 16.4249L10.4961 14.9385L17.5791 7.85549C17.7482 7.68665 17.8512 7.46285 17.8695 7.22461C17.8878 6.98638 17.8201 6.74947 17.6788 6.55681C17.5375 6.36414 17.3319 6.22845 17.0991 6.17433C16.8664 6.1202 16.622 6.15121 16.4102 6.26174L6.24488 11.5544L2.52052 10.1915L20.499 2.99905L17.1719 19.0401Z" fill="white"/>
</svg>
