<svg width="21" height="18" viewBox="0 0 21 18" fill="none" xmlns="http://www.w3.org/2000/svg">
<path d="M20.5 2.79997C19.7483 3.12606 18.9534 3.34163 18.14 3.43997C18.9982 2.92729 19.6413 2.12075 19.95 1.16997C19.1436 1.65003 18.2608 1.98826 17.34 2.16997C16.7245 1.50254 15.905 1.05826 15.0098 0.906817C14.1147 0.755372 13.1945 0.905324 12.3938 1.33315C11.593 1.76099 10.9569 2.4425 10.5852 3.2708C10.2135 4.09911 10.1273 5.02736 10.34 5.90997C8.70943 5.82749 7.11444 5.40292 5.65865 4.66383C4.20287 3.92474 2.91885 2.88766 1.89 1.61997C1.52914 2.25013 1.33952 2.96379 1.34 3.68997C1.33872 4.36435 1.50422 5.02858 1.82176 5.62353C2.13929 6.21848 2.59902 6.72568 3.16 7.09997C2.50798 7.08222 1.86989 6.90726 1.3 6.58997V6.63997C1.30489 7.58486 1.63599 8.49906 2.23731 9.22793C2.83864 9.9568 3.67326 10.4556 4.6 10.64C4.24326 10.7485 3.87287 10.8058 3.5 10.81C3.24189 10.807 2.98442 10.7835 2.73 10.74C2.99391 11.5528 3.50462 12.2631 4.19107 12.7721C4.87753 13.2811 5.70558 13.5635 6.56 13.58C5.1172 14.7152 3.33588 15.3348 1.5 15.34C1.16574 15.3411 0.831736 15.321 0.5 15.28C2.37443 16.4902 4.55881 17.1327 6.79 17.13C8.32969 17.146 9.85714 16.855 11.2831 16.274C12.7091 15.6931 14.005 14.8338 15.0952 13.7465C16.1854 12.6591 17.048 11.3654 17.6326 9.94087C18.2172 8.51639 18.512 6.98969 18.5 5.44997C18.5 5.27996 18.5 5.09997 18.5 4.91997C19.2847 4.33478 19.9615 3.61739 20.5 2.79997Z" fill="white"/>
</svg>
